  0
SECTION
  2
HEADER
  9
$ACADVER
  1
AC1018
  9
$ACADMAINTVER
 70
     0
  9
$DWGCODEPAGE
  3
ANSI_932
  9
$INSBASE
 10
0.0
 20
0.0
 30
0.0
  9
$EXTMIN
 10
1.000000000000000E+20
 20
1.000000000000000E+20
 30
1.000000000000000E+20
  9
$EXTMAX
 10
-1.000000000000000E+20
 20
-1.000000000000000E+20
 30
-1.000000000000000E+20
  9
$LIMMIN
 10
0.0
 20
0.0
  9
$LIMMAX
 10
12.0
 20
9.0
  9
$ORTHOMODE
 70
     0
  9
$REGENMODE
 70
     1
  9
$FILLMODE
 70
     1
  9
$QTEXTMODE
 70
     0
  9
$MIRRTEXT
 70
     1
  9
$LTSCALE
 40
1.0
  9
$ATTMODE
 70
     1
  9
$TEXTSIZE
 40
0.2
  9
$TRACEWID
 40
0.05
  9
$TEXTSTYLE
  7
Standard
  9
$CLAYER
  8
0
  9
$CELTYPE
  6
ByLayer
  9
$CECOLOR
 62
   256
  9
$CELTSCALE
 40
1.0
  9
$DISPSILH
 70
     0
  9
$DIMSCALE
 40
1.0
  9
$DIMASZ
 40
0.18
  9
$DIMEXO
 40
0.0625
  9
$DIMDLI
 40
0.38
  9
$DIMRND
 40
0.0
  9
$DIMDLE
 40
0.0
  9
$DIMEXE
 40
0.18
  9
$DIMTP
 40
0.0
  9
$DIMTM
 40
0.0
  9
$DIMTXT
 40
0.18
  9
$DIMCEN
 40
0.09
  9
$DIMTSZ
 40
0.0
  9
$DIMTOL
 70
     0
  9
$DIMLIM
 70
     0
  9
$DIMTIH
 70
     1
  9
$DIMTOH
 70
     1
  9
$DIMSE1
 70
     0
  9
$DIMSE2
 70
     0
  9
$DIMTAD
 70
     0
  9
$DIMZIN
 70
     0
  9
$DIMBLK
  1

  9
$DIMASO
 70
     1
  9
$DIMSHO
 70
     1
  9
$DIMPOST
  1

  9
$DIMAPOST
  1

  9
$DIMALT
 70
     0
  9
$DIMALTD
 70
     2
  9
$DIMALTF
 40
25.4
  9
$DIMLFAC
 40
1.0
  9
$DIMTOFL
 70
     0
  9
$DIMTVP
 40
0.0
  9
$DIMTIX
 70
     0
  9
$DIMSOXD
 70
     0
  9
$DIMSAH
 70
     0
  9
$DIMBLK1
  1

  9
$DIMBLK2
  1

  9
$DIMSTYLE
  2
Standard
  9
$DIMCLRD
 70
     0
  9
$DIMCLRE
 70
     0
  9
$DIMCLRT
 70
     0
  9
$DIMTFAC
 40
1.0
  9
$DIMGAP
 40
0.09
  9
$DIMJUST
 70
     0
  9
$DIMSD1
 70
     0
  9
$DIMSD2
 70
     0
  9
$DIMTOLJ
 70
     1
  9
$DIMTZIN
 70
     0
  9
$DIMALTZ
 70
     0
  9
$DIMALTTZ
 70
     0
  9
$DIMUPT
 70
     0
  9
$DIMDEC
 70
     4
  9
$DIMTDEC
 70
     4
  9
$DIMALTU
 70
     2
  9
$DIMALTTD
 70
     2
  9
$DIMTXSTY
  7
Standard
  9
$DIMAUNIT
 70
     0
  9
$DIMADEC
 70
     0
  9
$DIMALTRND
 40
0.0
  9
$DIMAZIN
 70
     0
  9
$DIMDSEP
 70
    46
  9
$DIMATFIT
 70
     3
  9
$DIMFRAC
 70
     0
  9
$DIMLDRBLK
  1

  9
$DIMLUNIT
 70
     2
  9
$DIMLWD
 70
    -2
  9
$DIMLWE
 70
    -2
  9
$DIMTMOVE
 70
     0
  9
$LUNITS
 70
     2
  9
$LUPREC
 70
     4
  9
$SKETCHINC
 40
0.1
  9
$FILLETRAD
 40
0.5
  9
$AUNITS
 70
     0
  9
$AUPREC
 70
     0
  9
$MENU
  1
.
  9
$ELEVATION
 40
0.0
  9
$PELEVATION
 40
0.0
  9
$THICKNESS
 40
0.0
  9
$LIMCHECK
 70
     0
  9
$CHAMFERA
 40
0.5
  9
$CHAMFERB
 40
0.5
  9
$CHAMFERC
 40
1.0
  9
$CHAMFERD
 40
0.0
  9
$SKPOLY
 70
     0
  9
$TDCREATE
 40
2457484.647743056
  9
$TDUCREATE
 40
2457484.314409722
  9
$TDUPDATE
 40
2457484.647743067
  9
$TDUUPDATE
 40
2457484.314409734
  9
$TDINDWG
 40
0.0000000116
  9
$TDUSRTIMER
 40
0.0000000116
  9
$USRTIMER
 70
     1
  9
$ANGBASE
 50
0.0
  9
$ANGDIR
 70
     0
  9
$PDMODE
 70
     0
  9
$PDSIZE
 40
0.0
  9
$PLINEWID
 40
0.0
  9
$SPLFRAME
 70
     0
  9
$SPLINETYPE
 70
     6
  9
$SPLINESEGS
 70
     8
  9
$HANDSEED
  5
184
  9
$SURFTAB1
 70
     6
  9
$SURFTAB2
 70
     6
  9
$SURFTYPE
 70
     6
  9
$SURFU
 70
     6
  9
$SURFV
 70
     6
  9
$UCSBASE
  2

  9
$UCSNAME
  2

  9
$UCSORG
 10
0.0
 20
0.0
 30
0.0
  9
$UCSXDIR
 10
1.0
 20
0.0
 30
0.0
  9
$UCSYDIR
 10
0.0
 20
1.0
 30
0.0
  9
$UCSORTHOREF
  2

  9
$UCSORTHOVIEW
 70
     0
  9
$UCSORGTOP
 10
0.0
 20
0.0
 30
0.0
  9
$UCSORGBOTTOM
 10
0.0
 20
0.0
 30
0.0
  9
$UCSORGLEFT
 10
0.0
 20
0.0
 30
0.0
  9
$UCSORGRIGHT
 10
0.0
 20
0.0
 30
0.0
  9
$UCSORGFRONT
 10
0.0
 20
0.0
 30
0.0
  9
$UCSORGBACK
 10
0.0
 20
0.0
 30
0.0
  9
$PUCSBASE
  2

  9
$PUCSNAME
  2

  9
$PUCSORG
 10
0.0
 20
0.0
 30
0.0
  9
$PUCSXDIR
 10
1.0
 20
0.0
 30
0.0
  9
$PUCSYDIR
 10
0.0
 20
1.0
 30
0.0
  9
$PUCSORTHOREF
  2

  9
$PUCSORTHOVIEW
 70
     0
  9
$PUCSORGTOP
 10
0.0
 20
0.0
 30
0.0
  9
$PUCSORGBOTTOM
 10
0.0
 20
0.0
 30
0.0
  9
$PUCSORGLEFT
 10
0.0
 20
0.0
 30
0.0
  9
$PUCSORGRIGHT
 10
0.0
 20
0.0
 30
0.0
  9
$PUCSORGFRONT
 10
0.0
 20
0.0
 30
0.0
  9
$PUCSORGBACK
 10
0.0
 20
0.0
 30
0.0
  9
$USERI1
 70
     0
  9
$USERI2
 70
     0
  9
$USERI3
 70
     0
  9
$USERI4
 70
     0
  9
$USERI5
 70
     0
  9
$USERR1
 40
0.0
  9
$USERR2
 40
0.0
  9
$USERR3
 40
0.0
  9
$USERR4
 40
0.0
  9
$USERR5
 40
0.0
  9
$WORLDVIEW
 70
     1
  9
$SHADEDGE
 70
     3
  9
$SHADEDIF
 70
    70
  9
$TILEMODE
 70
     1
  9
$MAXACTVP
 70
    64
  9
$PINSBASE
 10
0.0
 20
0.0
 30
0.0
  9
$PLIMCHECK
 70
     0
  9
$PEXTMIN
 10
1.000000000000000E+20
 20
1.000000000000000E+20
 30
1.000000000000000E+20
  9
$PEXTMAX
 10
-1.000000000000000E+20
 20
-1.000000000000000E+20
 30
-1.000000000000000E+20
  9
$PLIMMIN
 10
0.0
 20
0.0
  9
$PLIMMAX
 10
12.0
 20
9.0
  9
$UNITMODE
 70
     0
  9
$VISRETAIN
 70
     1
  9
$PLINEGEN
 70
     0
  9
$PSLTSCALE
 70
     1
  9
$TREEDEPTH
 70
  3020
  9
$CMLSTYLE
  2
Standard
  9
$CMLJUST
 70
     0
  9
$CMLSCALE
 40
1.0
  9
$PROXYGRAPHICS
 70
     1
  9
$MEASUREMENT
 70
     0
  9
$CELWEIGHT
370
    -1
  9
$ENDCAPS
280
     0
  9
$JOINSTYLE
280
     0
  9
$LWDISPLAY
290
     1
  9
$INSUNITS
 70
     1
  9
$HYPERLINKBASE
  1

  9
$STYLESHEET
  1

  9
$XEDIT
290
     1
  9
$CEPSNTYPE
380
     0
  9
$PSTYLEMODE
290
     1
  9
$FINGERPRINTGUID
  2
{F377917D-FFAF-758E-CCB7-5C397DD93C9D}
  9
$VERSIONGUID
  2
{FAEB1C32-E019-11D5-929B-00C0DF256EC4}
  9
$EXTNAMES
290
     1
  9
$PSVPSCALE
 40
0.0
  9
$OLESTARTUP
290
     0
  9
$SORTENTS
280
   127
  9
$INDEXCTL
280
     0
  9
$HIDETEXT
280
     1
  9
$XCLIPFRAME
290
     0
  9
$HALOGAP
280
     0
  9
$OBSCOLOR
 70
   257
  9
$OBSLTYPE
280
     0
  9
$INTERSECTIONDISPLAY
280
     0
  9
$INTERSECTIONCOLOR
 70
   257
  9
$DIMASSOC
280
     2
  9
$PROJECTNAME
  1

  0
ENDSEC
  0
SECTION
  2
CLASSES
  0
CLASS
  1
ACDBDICTIONARYWDFLT
  2
AcDbDictionaryWithDefault
  3
ObjectDBX Classes
 90
        0
 91
        3
280
     0
281
     0
  0
CLASS
  1
VISUALSTYLE
  2
AcDbVisualStyle
  3
ObjectDBX Classes
 90
     4095
 91
        3
280
     0
281
     0
  0
ENDSEC
  0
SECTION
  2
TABLES
  0
TABLE
  2
VPORT
  5
8
330
0
100
AcDbSymbolTable
 70
     1
  0
VPORT
  5
29
330
8
100
AcDbSymbolTableRecord
100
AcDbViewportTableRecord
  2
*Active
 70
     0
 10
0.0
 20
0.0
 11
1.0
 21
1.0
 12
0.0
 22
0.0
 13
0.0
 23
0.0
 14
0.5
 24
0.5
 15
0.5
 25
0.5
 16
0.0
 26
0.0
 36
1.0
 17
-0.0126951768631463
 27
0.0019464789491668
 37
0.0
 40
29.69999592356458
 41
0.7070763662937379
 42
50.0
 43
0.0
 44
0.0
 50
0.0
 51
0.0
 71
     0
 72
   100
 73
     1
 74
     3
 75
     0
 76
     0
 77
     0
 78
     0
281
     0
 65
     1
110
0.0
120
0.0
130
0.0
111
1.0
121
0.0
131
0.0
112
0.0
122
1.0
132
0.0
 79
     0
146
0.0
  0
ENDTAB
  0
TABLE
  2
LTYPE
  5
5
330
0
100
AcDbSymbolTable
 70
     1
  0
LTYPE
  5
14
330
5
100
AcDbSymbolTableRecord
100
AcDbLinetypeTableRecord
  2
ByBlock
 70
     0
  3

 72
    65
 73
     0
 40
0.0
  0
LTYPE
  5
15
330
5
100
AcDbSymbolTableRecord
100
AcDbLinetypeTableRecord
  2
ByLayer
 70
     0
  3

 72
    65
 73
     0
 40
0.0
  0
LTYPE
  5
16
330
5
100
AcDbSymbolTableRecord
100
AcDbLinetypeTableRecord
  2
Continuous
 70
     0
  3
Solid line
 72
    65
 73
     0
 40
0.0
  0
ENDTAB
  0
TABLE
  2
LAYER
  5
2
330
0
100
AcDbSymbolTable
 70
     2
  0
LAYER
  5
10
330
2
100
AcDbSymbolTableRecord
100
AcDbLayerTableRecord
  2
0
 70
     0
 62
     7
  6
Continuous
370
    -3
390
F
  0
LAYER
  5
3B
330
2
100
AcDbSymbolTableRecord
100
AcDbLayerTableRecord
  2
Default
 70
     0
 62
     7
  6
Continuous
370
    -3
390
F
  0
ENDTAB
  0
TABLE
  2
STYLE
  5
3
330
0
100
AcDbSymbolTable
 70
     1
  0
STYLE
  5
11
330
3
100
AcDbSymbolTableRecord
100
AcDbTextStyleTableRecord
  2
Standard
 70
     0
 40
0.0
 41
1.0
 50
0.0
 71
     0
 42
0.2
  3
txt
  4

  0
ENDTAB
  0
TABLE
  2
VIEW
  5
6
330
0
100
AcDbSymbolTable
 70
     0
  0
ENDTAB
  0
TABLE
  2
UCS
  5
7
330
0
100
AcDbSymbolTable
 70
     0
  0
ENDTAB
  0
TABLE
  2
APPID
  5
9
330
0
100
AcDbSymbolTable
 70
     1
  0
APPID
  5
12
330
9
100
AcDbSymbolTableRecord
100
AcDbRegAppTableRecord
  2
ACAD
 70
     0
  0
ENDTAB
  0
TABLE
  2
DIMSTYLE
  5
A
330
0
100
AcDbSymbolTable
 70
     1
100
AcDbDimStyleTable
  0
DIMSTYLE
105
27
330
A
100
AcDbSymbolTableRecord
100
AcDbDimStyleTableRecord
  2
Standard
 70
     0
340
11
  0
ENDTAB
  0
TABLE
  2
BLOCK_RECORD
  5
1
330
0
100
AcDbSymbolTable
 70
     2
  0
BLOCK_RECORD
  5
1F
330
1
100
AcDbSymbolTableRecord
100
AcDbBlockTableRecord
  2
*Model_Space
340
22
  0
BLOCK_RECORD
  5
1B
330
1
100
AcDbSymbolTableRecord
100
AcDbBlockTableRecord
  2
*Paper_Space
340
1E
  0
BLOCK_RECORD
  5
23
330
1
100
AcDbSymbolTableRecord
100
AcDbBlockTableRecord
  2
*Paper_Space0
340
26
  0
BLOCK_RECORD
  5
175
330
1
100
AcDbSymbolTableRecord
100
AcDbBlockTableRecord
  2
block 2
340
0
102
{BLKREFS
331
176
102
}
  0
ENDTAB
  0
ENDSEC
  0
SECTION
  2
BLOCKS
  0
BLOCK
  5
20
330
1F
100
AcDbEntity
  8
0
100
AcDbBlockBegin
  2
*Model_Space
 70
     0
 71
     0
 10
0.0
 20
0.0
 30
0.0
  3
*Model_Space
  1

  0
ENDBLK
  5
21
330
1F
100
AcDbEntity
  8
0
100
AcDbBlockEnd
  0
BLOCK
  5
1C
330
1B
100
AcDbEntity
 67
     1
  8
0
100
AcDbBlockBegin
  2
*Paper_Space
 70
     0
 71
     0
 10
0.0
 20
0.0
 30
0.0
  3
*Paper_Space
  1

  0
ENDBLK
  5
1D
330
1B
100
AcDbEntity
 67
     1
  8
0
100
AcDbBlockEnd
  0
BLOCK
  5
24
330
23
100
AcDbEntity
  8
0
100
AcDbBlockBegin
  2
*Paper_Space0
 70
     0
 71
     0
 10
0.0
 20
0.0
 30
0.0
  3
*Paper_Space0
  1

  0
ENDBLK
  5
25
330
23
100
AcDbEntity
  8
0
100
AcDbBlockEnd
  0
BLOCK
  5
177
330
175
100
AcDbEntity
  8
0
100
AcDbBlockBegin
  2
block 2
 70
     0
 71
     0
 10
0.0
 20
0.0
 30
0.0
  3
block 2
  1

  0
SPLINE
  5
179
330
175
100
AcDbEntity
  8
Default
 62
     1
420
 16711680
370
    18
100
AcDbSpline
210
0.0
220
0.0
230
1.0
 70
    11
 71
     3
 72
    17
 73
    13
 74
     0
 42
0.0000000001
 43
0.0000000001
 40
0.0
 40
0.0
 40
0.0
 40
0.0
 40
1.0
 40
1.0
 40
1.0
 40
2.0
 40
2.0
 40
2.0
 40
3.0
 40
3.0
 40
3.0
 40
4.0
 40
4.0
 40
4.0
 40
4.0
 10
-2.41099839891982
 20
7.564051647414543
 30
0.0
 10
-2.649278428157125
 20
7.609974770232922
 30
0.0
 10
-2.892088757957533
 20
7.633246390235785
 30
0.0
 10
-3.132556422827972
 20
7.633246390235785
 30
0.0
 10
-4.758452011614206
 20
7.633246390235785
 30
0.0
 10
-6.184222003662278
 20
6.59110500594771
 30
0.0
 10
-6.707532007871728
 20
5.0893189820176
 30
0.0
 10
-4.297842745236303
 20
5.415862357587006
 30
0.0
 10
-1.957968342609466
 20
5.436067842607996
 30
0.0
 10
0.4285698783650797
 20
5.150762259997031
 30
0.0
 10
-0.0167431640583142
 20
6.354237465859357
 30
0.0
 10
-1.061571722824885
 20
7.304084742097589
 30
0.0
 10
-2.41099839891982
 20
7.564051647414543
 30
0.0
  0
SPLINE
  5
17A
330
175
100
AcDbEntity
  8
Default
 62
     1
420
 16711680
370
    18
100
AcDbSpline
210
0.0
220
0.0
230
1.0
 70
    11
 71
     3
 72
    17
 73
    13
 74
     0
 42
0.0000000001
 43
0.0000000001
 40
0.0
 40
0.0
 40
0.0
 40
0.0
 40
1.0
 40
1.0
 40
1.0
 40
2.0
 40
2.0
 40
2.0
 40
3.0
 40
3.0
 40
3.0
 40
4.0
 40
4.0
 40
4.0
 40
4.0
 10
-6.872052542769834
 20
3.234617376578498
 30
0.0
 10
-4.360939669048654
 20
2.965693222999896
 30
0.0
 10
-1.907273762544015
 20
2.980972221476979
 30
0.0
 10
0.6206684026226106
 20
3.281281194926207
 30
0.0
 10
0.654016926919829
 20
3.503799912318494
 30
0.0
 10
0.6669015840346635
 20
3.725043944381239
 30
0.0
 10
0.6610793726645913
 20
3.94327351789439
 30
0.0
 10
-1.883898789676595
 20
4.25946438153062
 30
0.0
 10
-4.36026787542903
 20
4.349570853947329
 30
0.0
 10
-6.900302325748882
 20
4.218553872643278
 30
0.0
 10
-6.933960908639773
 20
3.887583549375326
 30
0.0
 10
-6.924159611984237
 20
3.557405598068982
 30
0.0
 10
-6.872052542769834
 20
3.234617376578498
 30
0.0
  0
SPLINE
  5
17B
330
175
100
AcDbEntity
  8
Default
 62
     1
420
 16711680
370
    18
100
AcDbSpline
210
0.0
220
0.0
230
1.0
 70
    11
 71
     3
 72
    29
 73
    25
 74
     0
 42
0.0000000001
 43
0.0000000001
 40
0.0
 40
0.0
 40
0.0
 40
0.0
 40
1.0
 40
1.0
 40
1.0
 40
2.0
 40
2.0
 40
2.0
 40
3.0
 40
3.0
 40
3.0
 40
4.0
 40
4.0
 40
4.0
 40
5.0
 40
5.0
 40
5.0
 40
6.0
 40
6.0
 40
6.0
 40
7.0
 40
7.0
 40
7.0
 40
8.0
 40
8.0
 40
8.0
 40
8.0
 10
-3.060312770502283
 20
1.963273789656751
 30
0.0
 10
-2.968656005117211
 20
2.176129014212912
 30
0.0
 10
-2.710049912516932
 20
2.289386528290501
 30
0.0
 10
-2.463587781502159
 20
2.289386528290501
 30
0.0
 10
-2.226306829955576
 20
2.289386528290501
 30
0.0
 10
-1.978208278585309
 20
2.184138861216118
 30
0.0
 10
-1.878231607603359
 20
1.986459282272482
 30
0.0
 10
-1.152194959564382
 20
2.027128634475857
 30
0.0
 10
-0.432462836263412
 20
2.115736490356483
 30
0.0
 10
0.3150539821260976
 20
2.256606444748348
 30
0.0
 10
0.4207495116135626
 20
2.486118705975692
 30
0.0
 10
0.5048442924085111
 20
2.728343369543608
 30
0.0
 10
0.5637898761611359
 20
2.981540662232045
 30
0.0
 10
-0.7489982094481671
 20
2.829009059622609
 30
0.0
 10
-2.042648789636907
 20
2.751873371707865
 30
0.0
 10
-3.334611273037875
 20
2.751873371707865
 30
0.0
 10
-4.490027396880965
 20
2.751873371707865
 30
0.0
 10
-5.644444443033333
 20
2.813609482803542
 30
0.0
 10
-6.810936548861502
 20
2.93541083368455
 30
0.0
 10
-6.767442218360222
 20
2.758987493884906
 30
0.0
 10
-6.710942652402125
 20
2.585681965499413
 30
0.0
 10
-6.641885713400292
 20
2.416407198831662
 30
0.0
 10
-5.454412976066952
 20
2.130567626420483
 30
0.0
 10
-4.280531140422922
 20
1.98229071673533
 30
0.0
 10
-3.060312770502283
 20
1.963273789656751
 30
0.0
  0
SPLINE
  5
17C
330
175
100
AcDbEntity
  8
Default
 62
     1
420
 16711680
370
    18
100
AcDbSpline
210
0.0
220
0.0
230
1.0
 70
    11
 71
     3
 72
    32
 73
    28
 74
     0
 42
0.0000000001
 43
0.0000000001
 40
0.0
 40
0.0
 40
0.0
 40
0.0
 40
1.0
 40
1.0
 40
1.0
 40
2.0
 40
2.0
 40
2.0
 40
3.0
 40
3.0
 40
3.0
 40
4.0
 40
4.0
 40
4.0
 40
5.0
 40
5.0
 40
5.0
 40
6.0
 40
6.0
 40
6.0
 40
7.0
 40
7.0
 40
7.0
 40
8.0
 40
8.0
 40
8.0
 40
9.0
 40
9.0
 40
9.0
 40
9.0
 10
-4.9083308907
 20
-0.2882511392508539
 30
0.0
 10
-4.775866969292144
 20
-0.1802473957882715
 30
0.0
 10
-4.635961641636148
 20
-0.0887112087451833
 30
0.0
 10
-4.488184270796356
 20
-0.0088711208745183
 30
0.0
 10
-5.308582084176327
 20
0.2789666069181055
 30
0.0
 10
-6.012621797541983
 20
0.8196054414183624
 30
0.0
 10
-6.50899115505678
 20
1.552825113544085
 30
0.0
 10
-6.560822616632363
 20
1.629409586181189
 30
0.0
 10
-6.608847247696746
 20
1.707768282993197
 30
0.0
 10
-6.655063203631372
 20
1.786902126289385
 30
0.0
 10
-7.078344860426593
 20
2.042821044411169
 30
0.0
 10
-7.623117809509151
 20
2.002186143162648
 30
0.0
 10
-8.005092771436226
 20
1.668011881093413
 30
0.0
 10
-8.020905759713523
 20
1.654197048197562
 30
0.0
 10
-8.040456676592315
 20
1.647410210091619
 30
0.0
 10
-8.059869789651698
 20
1.647410210091619
 30
0.0
 10
-8.083038056790004
 20
1.647410210091619
 30
0.0
 10
-8.106085745586325
 20
1.657039251972893
 30
0.0
 10
-8.12255330200582
 20
1.675815022367504
 30
0.0
 10
-8.129374591066615
 20
1.683652614596448
 30
0.0
 10
-8.133973793539422
 20
1.692558186425819
 30
0.0
 10
-8.13738443806982
 20
1.701791042326288
 30
0.0
 10
-8.13738443806982
 20
1.701791042326288
 30
0.0
 10
-8.537670082500998
 20
-0.2308213975117391
 30
0.0
 10
-8.537670082500998
 20
-0.2308213975117391
 30
0.0
 10
-7.476907957115148
 20
0.6749114310378693
 30
0.0
 10
-5.935761717266059
 20
0.6484186467562981
 30
0.0
 10
-4.9083308907
 20
-0.2882511392508539
 30
0.0
  0
SPLINE
  5
17D
330
175
100
AcDbEntity
  8
Default
 62
     1
420
 16711680
370
    18
100
AcDbSpline
210
0.0
220
0.0
230
1.0
 70
    11
 71
     3
 72
    20
 73
    16
 74
     0
 42
0.0000000001
 43
0.0000000001
 40
0.0
 40
0.0
 40
0.0
 40
0.0
 40
1.0
 40
1.0
 40
1.0
 40
2.0
 40
2.0
 40
2.0
 40
3.0
 40
3.0
 40
3.0
 40
4.0
 40
4.0
 40
4.0
 40
5.0
 40
5.0
 40
5.0
 40
5.0
 10
-6.850951332922678
 20
4.558550346082584
 30
0.0
 10
-6.85393134051742
 20
4.543116318308665
 30
0.0
 10
-6.855946721376291
 20
4.527665065057319
 30
0.0
 10
-6.858720023241917
 20
4.512248262760827
 30
0.0
 10
-4.339717880859514
 20
4.639079453050299
 30
0.0
 10
-1.881797281430592
 20
4.549489744956377
 30
0.0
 10
0.6419590927214546
 20
4.238983288870809
 30
0.0
 10
0.6200827363901181
 20
4.445568439643816
 30
0.0
 10
0.5809809026325325
 20
4.648208956086211
 30
0.0
 10
0.5264105901461751
 20
4.845578476436175
 30
0.0
 10
-1.924619818312248
 20
5.150142142809687
 30
0.0
 10
-4.323767088762808
 20
5.129626599195023
 30
0.0
 10
-6.79982611592157
 20
4.782826062172349
 30
0.0
 10
-6.818774141090445
 20
4.708894313058887
 30
0.0
 10
-6.836361353542645
 20
4.634307995803228
 30
0.0
 10
-6.850951332922678
 20
4.558550346082584
 30
0.0
  0
SPLINE
  5
17E
330
175
100
AcDbEntity
  8
Default
 62
     1
420
 16711680
370
    18
100
AcDbSpline
210
0.0
220
0.0
230
1.0
 70
    11
 71
     3
 72
   383
 73
   379
 74
     0
 42
0.0000000001
 43
0.0000000001
 40
0.0
 40
0.0
 40
0.0
 40
0.0
 40
1.0
 40
1.0
 40
1.0
 40
2.0
 40
2.0
 40
2.0
 40
3.0
 40
3.0
 40
3.0
 40
4.0
 40
4.0
 40
4.0
 40
5.0
 40
5.0
 40
5.0
 40
6.0
 40
6.0
 40
6.0
 40
7.0
 40
7.0
 40
7.0
 40
8.0
 40
8.0
 40
8.0
 40
9.0
 40
9.0
 40
9.0
 40
10.0
 40
10.0
 40
10.0
 40
11.0
 40
11.0
 40
11.0
 40
12.0
 40
12.0
 40
12.0
 40
13.0
 40
13.0
 40
13.0
 40
14.0
 40
14.0
 40
14.0
 40
15.0
 40
15.0
 40
15.0
 40
16.0
 40
16.0
 40
16.0
 40
17.0
 40
17.0
 40
17.0
 40
18.0
 40
18.0
 40
18.0
 40
19.0
 40
19.0
 40
19.0
 40
20.0
 40
20.0
 40
20.0
 40
21.0
 40
21.0
 40
21.0
 40
22.0
 40
22.0
 40
22.0
 40
23.0
 40
23.0
 40
23.0
 40
24.0
 40
24.0
 40
24.0
 40
25.0
 40
25.0
 40
25.0
 40
26.0
 40
26.0
 40
26.0
 40
27.0
 40
27.0
 40
27.0
 40
28.0
 40
28.0
 40
28.0
 40
29.0
 40
29.0
 40
29.0
 40
30.0
 40
30.0
 40
30.0
 40
31.0
 40
31.0
 40
31.0
 40
32.0
 40
32.0
 40
32.0
 40
33.0
 40
33.0
 40
33.0
 40
34.0
 40
34.0
 40
34.0
 40
35.0
 40
35.0
 40
35.0
 40
36.0
 40
36.0
 40
36.0
 40
37.0
 40
37.0
 40
37.0
 40
38.0
 40
38.0
 40
38.0
 40
39.0
 40
39.0
 40
39.0
 40
40.0
 40
40.0
 40
40.0
 40
41.0
 40
41.0
 40
41.0
 40
42.0
 40
42.0
 40
42.0
 40
43.0
 40
43.0
 40
43.0
 40
44.0
 40
44.0
 40
44.0
 40
45.0
 40
45.0
 40
45.0
 40
46.0
 40
46.0
 40
46.0
 40
47.0
 40
47.0
 40
47.0
 40
48.0
 40
48.0
 40
48.0
 40
49.0
 40
49.0
 40
49.0
 40
50.0
 40
50.0
 40
50.0
 40
51.0
 40
51.0
 40
51.0
 40
52.0
 40
52.0
 40
52.0
 40
53.0
 40
53.0
 40
53.0
 40
54.0
 40
54.0
 40
54.0
 40
55.0
 40
55.0
 40
55.0
 40
56.0
 40
56.0
 40
56.0
 40
57.0
 40
57.0
 40
57.0
 40
58.0
 40
58.0
 40
58.0
 40
59.0
 40
59.0
 40
59.0
 40
60.0
 40
60.0
 40
60.0
 40
61.0
 40
61.0
 40
61.0
 40
62.0
 40
62.0
 40
62.0
 40
63.0
 40
63.0
 40
63.0
 40
64.0
 40
64.0
 40
64.0
 40
65.0
 40
65.0
 40
65.0
 40
66.0
 40
66.0
 40
66.0
 40
67.0
 40
67.0
 40
67.0
 40
68.0
 40
68.0
 40
68.0
 40
69.0
 40
69.0
 40
69.0
 40
70.0
 40
70.0
 40
70.0
 40
71.0
 40
71.0
 40
71.0
 40
72.0
 40
72.0
 40
72.0
 40
73.0
 40
73.0
 40
73.0
 40
74.0
 40
74.0
 40
74.0
 40
75.0
 40
75.0
 40
75.0
 40
76.0
 40
76.0
 40
76.0
 40
77.0
 40
77.0
 40
77.0
 40
78.0
 40
78.0
 40
78.0
 40
79.0
 40
79.0
 40
79.0
 40
80.0
 40
80.0
 40
80.0
 40
81.0
 40
81.0
 40
81.0
 40
82.0
 40
82.0
 40
82.0
 40
83.0
 40
83.0
 40
83.0
 40
84.0
 40
84.0
 40
84.0
 40
85.0
 40
85.0
 40
85.0
 40
86.0
 40
86.0
 40
86.0
 40
87.0
 40
87.0
 40
87.0
 40
88.0
 40
88.0
 40
88.0
 40
89.0
 40
89.0
 40
89.0
 40
90.0
 40
90.0
 40
90.0
 40
91.0
 40
91.0
 40
91.0
 40
92.0
 40
92.0
 40
92.0
 40
93.0
 40
93.0
 40
93.0
 40
94.0
 40
94.0
 40
94.0
 40
95.0
 40
95.0
 40
95.0
 40
96.0
 40
96.0
 40
96.0
 40
97.0
 40
97.0
 40
97.0
 40
98.0
 40
98.0
 40
98.0
 40
99.0
 40
99.0
 40
99.0
 40
100.0
 40
100.0
 40
100.0
 40
101.0
 40
101.0
 40
101.0
 40
102.0
 40
102.0
 40
102.0
 40
103.0
 40
103.0
 40
103.0
 40
104.0
 40
104.0
 40
104.0
 40
105.0
 40
105.0
 40
105.0
 40
106.0
 40
106.0
 40
106.0
 40
107.0
 40
107.0
 40
107.0
 40
108.0
 40
108.0
 40
108.0
 40
109.0
 40
109.0
 40
109.0
 40
110.0
 40
110.0
 40
110.0
 40
111.0
 40
111.0
 40
111.0
 40
112.0
 40
112.0
 40
112.0
 40
113.0
 40
113.0
 40
113.0
 40
114.0
 40
114.0
 40
114.0
 40
115.0
 40
115.0
 40
115.0
 40
116.0
 40
116.0
 40
116.0
 40
117.0
 40
117.0
 40
117.0
 40
118.0
 40
118.0
 40
118.0
 40
119.0
 40
119.0
 40
119.0
 40
120.0
 40
120.0
 40
120.0
 40
121.0
 40
121.0
 40
121.0
 40
122.0
 40
122.0
 40
122.0
 40
123.0
 40
123.0
 40
123.0
 40
124.0
 40
124.0
 40
124.0
 40
125.0
 40
125.0
 40
125.0
 40
126.0
 40
126.0
 40
126.0
 40
126.0
 10
2.350588649585964
 20
-1.187937825223849
 30
0.0
 10
2.350588649585964
 20
-1.187937825223849
 30
0.0
 10
2.248441568448306
 20
-0.6947379555554821
 30
0.0
 10
2.248441568448306
 20
-0.6947379555554821
 30
0.0
 10
2.248303764628896
 20
-0.6947379555554821
 30
0.0
 10
2.248165960809486
 20
-0.6948068574651871
 30
0.0
 10
2.248062607944929
 20
-0.6948068574651871
 30
0.0
 10
2.22752983885284
 20
-0.6948068574651871
 30
0.0
 10
2.20699706976075
 20
-0.6872965493073425
 30
0.0
 10
2.190942924799486
 20
-0.6721036782173907
 30
0.0
 10
1.222044270527822
 20
0.242913682664966
 30
0.0
 10
-0.275883246458807
 20
0.2840136718039966
 30
0.0
 10
-1.293530001846756
 20
-0.5764678275468552
 30
0.0
 10
-1.293530001846756
 20
-0.5764678275468552
 30
0.0
 10
-1.351304253134396
 20
-0.6253537324825504
 30
0.0
 10
-1.351304253134396
 20
-0.6253537324825504
 30
0.0
 10
-1.351304253134396
 20
-0.6253537324825504
 30
0.0
 10
-1.405426703207671
 20
-0.5724370658291129
 30
0.0
 10
-1.405426703207671
 20
-0.5724370658291129
 30
0.0
 10
-1.608101670604919
 20
-0.3744474282918048
 30
0.0
 10
-1.822214355013196
 20
-0.2234144422184519
 30
0.0
 10
-2.071346435029038
 20
-0.1031806097832326
 30
0.0
 10
-2.408500704693013
 20
-0.1936832681807458
 30
0.0
 10
-2.76145073715686
 20
-0.2418801540193911
 30
0.0
 10
-3.12370252743088
 20
-0.2418801540193911
 30
0.0
 10
-3.12384033125029
 20
-0.2418801540193911
 30
0.0
 10
-3.123771429340584
 20
-0.2418801540193911
 30
0.0
 10
-3.123874782205142
 20
-0.2418801540193911
 30
0.0
 10
-3.382894286263651
 20
-0.2418801540193911
 30
0.0
 10
-3.644170327864999
 20
-0.2168687607964772
 30
0.0
 10
-3.900554333877292
 20
-0.1674316405831421
 30
0.0
 10
-4.022183429984037
 20
-0.1440049912834432
 30
0.0
 10
-4.141711017844781
 20
-0.1146527777491146
 30
0.0
 10
-4.259429930575767
 20
-0.0809252929485187
 30
0.0
 10
-4.476247014939966
 20
-0.180350748652829
 30
0.0
 10
-4.673668211722208
 20
-0.3047875975800531
 30
0.0
 10
-4.857153997266614
 20
-0.4624696179399381
 30
0.0
 10
-4.857153997266614
 20
-0.4624696179399381
 30
0.0
 10
-4.914549288050877
 20
-0.5117689343338633
 30
0.0
 10
-4.914549288050877
 20
-0.5117689343338633
 30
0.0
 10
-4.914549288050877
 20
-0.5117689343338633
 30
0.0
 10
-4.969085149582381
 20
-0.4593690320032133
 30
0.0
 10
-4.969085149582381
 20
-0.4593690320032133
 30
0.0
 10
-5.941325546474737
 20
0.4747513833448538
 30
0.0
 10
-7.439787053261581
 20
0.5095985241781559
 30
0.0
 10
-8.454522702964494
 20
-0.3782370333255796
 30
0.0
 10
-8.487664521532597
 20
-0.4071413844468257
 30
0.0
 10
-8.53651597551344
 20
-0.4043164061489209
 30
0.0
 10
-8.567297903674147
 20
-0.3739995658787223
 30
0.0
 10
-8.567297903674147
 20
-0.3739995658787223
 30
0.0
 10
-8.695558808589999
 20
-0.993289930307233
 30
0.0
 10
-8.695558808589999
 20
-0.993289930307233
 30
0.0
 10
-8.695558808589999
 20
-0.993289930307233
 30
0.0
 10
-8.649584009339339
 20
-1.043932833940406
 30
0.0
 10
-8.649584009339339
 20
-1.043932833940406
 30
0.0
 10
-8.649584009339339
 20
-1.043932833940406
 30
0.0
 10
-8.501186521312203
 20
-1.019886067453362
 30
0.0
 10
-8.501186521312203
 20
-1.019886067453362
 30
0.0
 10
-8.501186521312203
 20
-1.019886067453362
 30
0.0
 10
-8.57587619143242
 20
-1.150420735389478
 30
0.0
 10
-8.57587619143242
 20
-1.150420735389478
 30
0.0
 10
-8.57587619143242
 20
-1.150420735389478
 30
0.0
 10
-8.507129311024258
 20
-1.284159342126877
 30
0.0
 10
-8.507129311024258
 20
-1.284159342126877
 30
0.0
 10
-8.507129311024258
 20
-1.284159342126877
 30
0.0
 10
-8.654355466586411
 20
-1.253429090398448
 30
0.0
 10
-8.654355466586411
 20
-1.253429090398448
 30
0.0
 10
-8.654355466586411
 20
-1.253429090398448
 30
0.0
 10
-8.76030937823527
 20
-1.360158148531488
 30
0.0
 10
-8.76030937823527
 20
-1.360158148531488
 30
0.0
 10
-8.76030937823527
 20
-1.360158148531488
 30
0.0
 10
-8.764167885178749
 20
-1.324570312168857
 30
0.0
 10
-8.764167885178749
 20
-1.324570312168857
 30
0.0
 10
-8.764167885178749
 20
-1.324570312168857
 30
0.0
 10
-8.816998424445055
 20
-1.579679632851608
 30
0.0
 10
-8.816998424445055
 20
-1.579679632851608
 30
0.0
 10
-8.816998424445055
 20
-1.579679632851608
 30
0.0
 10
-8.771936575497987
 20
-1.559422471398339
 30
0.0
 10
-8.771936575497987
 20
-1.559422471398339
 30
0.0
 10
-8.771936575497987
 20
-1.559422471398339
 30
0.0
 10
-8.748940563133944
 20
-1.410766601209808
 30
0.0
 10
-8.748940563133944
 20
-1.410766601209808
 30
0.0
 10
-8.748940563133944
 20
-1.410766601209808
 30
0.0
 10
-8.647895912551567
 20
-1.522146538247936
 30
0.0
 10
-8.647895912551567
 20
-1.522146538247936
 30
0.0
 10
-8.647895912551567
 20
-1.522146538247936
 30
0.0
 10
-8.49944674809215
 20
-1.498203124625449
 30
0.0
 10
-8.49944674809215
 20
-1.498203124625449
 30
0.0
 10
-8.49944674809215
 20
-1.498203124625449
 30
0.0
 10
-8.57417086916722
 20
-1.628634439697008
 30
0.0
 10
-8.57417086916722
 20
-1.628634439697008
 30
0.0
 10
-8.57417086916722
 20
-1.628634439697008
 30
0.0
 10
-8.505441214236486
 20
-1.762373046434407
 30
0.0
 10
-8.505441214236486
 20
-1.762373046434407
 30
0.0
 10
-8.505441214236486
 20
-1.762373046434407
 30
0.0
 10
-8.652650144321212
 20
-1.731608343751126
 30
0.0
 10
-8.652650144321212
 20
-1.731608343751126
 30
0.0
 10
-8.652650144321212
 20
-1.731608343751126
 30
0.0
 10
-8.68048651584203
 20
-1.759651421001059
 30
0.0
 10
-8.68048651584203
 20
-1.759651421001059
 30
0.0
 10
-8.68048651584203
 20
-1.759651421001059
 30
0.0
 10
-8.533656546260682
 20
-1.809088541214394
 30
0.0
 10
-8.533656546260682
 20
-1.809088541214394
 30
0.0
 10
-8.533656546260682
 20
-1.809088541214394
 30
0.0
 10
-8.365294729896522
 20
-1.675625542115816
 30
0.0
 10
-8.365294729896522
 20
-1.675625542115816
 30
0.0
 10
-8.365294729896522
 20
-1.675625542115816
 30
0.0
 10
-8.367534041961935
 20
-1.890461696575995
 30
0.0
 10
-8.367534041961935
 20
-1.890461696575995
 30
0.0
 10
-8.367534041961935
 20
-1.890461696575995
 30
0.0
 10
-8.188595782458059
 20
-2.009317490817115
 30
0.0
 10
-8.188595782458059
 20
-2.009317490817115
 30
0.0
 10
-8.188595782458059
 20
-2.009317490817115
 30
0.0
 10
-8.39359618930785
 20
-2.073568521617025
 30
0.0
 10
-8.39359618930785
 20
-2.073568521617025
 30
0.0
 10
-8.39359618930785
 20
-2.073568521617025
 30
0.0
 10
-8.421415335351243
 20
-2.173235134005302
 30
0.0
 10
-8.421415335351243
 20
-2.173235134005302
 30
0.0
 10
-8.421415335351243
 20
-2.173235134005302
 30
0.0
 10
-8.31112060339097
 20
-2.390276149576042
 30
0.0
 10
-8.31112060339097
 20
-2.390276149576042
 30
0.0
 10
-8.31112060339097
 20
-2.390276149576042
 30
0.0
 10
-7.955069984990399
 20
-2.427965494184675
 30
0.0
 10
-7.955069984990399
 20
-2.427965494184675
 30
0.0
 10
-7.955069984990399
 20
-2.427965494184675
 30
0.0
 10
-7.995618758851789
 20
-2.468479817091213
 30
0.0
 10
-7.995618758851789
 20
-2.468479817091213
 30
0.0
 10
-7.995618758851789
 20
-2.468479817091213
 30
0.0
 10
-7.919533825060046
 20
-2.552333441202194
 30
0.0
 10
-7.919533825060046
 20
-2.552333441202194
 30
0.0
 10
-7.919533825060046
 20
-2.552333441202194
 30
0.0
 10
-7.771067435123205
 20
-2.528321125670003
 30
0.0
 10
-7.771067435123205
 20
-2.528321125670003
 30
0.0
 10
-7.771067435123205
 20
-2.528321125670003
 30
0.0
 10
-7.8458087816757
 20
-2.658821342651267
 30
0.0
 10
-7.8458087816757
 20
-2.658821342651267
 30
0.0
 10
-7.8458087816757
 20
-2.658821342651267
 30
0.0
 10
-7.788413490891438
 20
-2.770545789237919
 30
0.0
 10
-7.788413490891438
 20
-2.770545789237919
 30
0.0
 10
-7.788413490891438
 20
-2.770545789237919
 30
0.0
 10
-7.751275361560444
 20
-2.753802625179605
 30
0.0
 10
-7.751275361560444
 20
-2.753802625179605
 30
0.0
 10
-7.751275361560444
 20
-2.753802625179605
 30
0.0
 10
-7.728313800151255
 20
-2.605181205945927
 30
0.0
 10
-7.728313800151255
 20
-2.605181205945927
 30
0.0
 10
-7.728313800151255
 20
-2.605181205945927
 30
0.0
 10
-7.627286375046303
 20
-2.716630044893759
 30
0.0
 10
-7.627286375046303
 20
-2.716630044893759
 30
0.0
 10
-7.627286375046303
 20
-2.716630044893759
 30
0.0
 10
-7.478802759632035
 20
-2.692583278406715
 30
0.0
 10
-7.478802759632035
 20
-2.692583278406715
 30
0.0
 10
-7.478802759632035
 20
-2.692583278406715
 30
0.0
 10
-7.55354410618453
 20
-2.823014593478274
 30
0.0
 10
-7.55354410618453
 20
-2.823014593478274
 30
0.0
 10
-7.55354410618453
 20
-2.823014593478274
 30
0.0
 10
-7.484831676731222
 20
-2.956822102125378
 30
0.0
 10
-7.484831676731222
 20
-2.956822102125378
 30
0.0
 10
-7.484831676731222
 20
-2.956822102125378
 30
0.0
 10
-7.632023381338521
 20
-2.925988497532392
 30
0.0
 10
-7.632023381338521
 20
-2.925988497532392
 30
0.0
 10
-7.632023381338521
 20
-2.925988497532392
 30
0.0
 10
-7.635296222049509
 20
-2.929330240153084
 30
0.0
 10
-7.635296222049509
 20
-2.929330240153084
 30
0.0
 10
-7.635296222049509
 20
-2.929330240153084
 30
0.0
 10
-7.571389700798124
 20
-2.99974799187159
 30
0.0
 10
-7.571389700798124
 20
-2.99974799187159
 30
0.0
 10
-7.571389700798124
 20
-2.99974799187159
 30
0.0
 10
-7.422957761816135
 20
-2.975701225384547
 30
0.0
 10
-7.422957761816135
 20
-2.975701225384547
 30
0.0
 10
-7.422957761816135
 20
-2.975701225384547
 30
0.0
 10
-7.497716333846056
 20
-3.106201442365811
 30
0.0
 10
-7.497716333846056
 20
-3.106201442365811
 30
0.0
 10
-7.497716333846056
 20
-3.106201442365811
 30
0.0
 10
-7.428935002483043
 20
-3.239940049103209
 30
0.0
 10
-7.428935002483043
 20
-3.239940049103209
 30
0.0
 10
-7.428935002483043
 20
-3.239940049103209
 30
0.0
 10
-7.432879636813655
 20
-3.239147677141602
 30
0.0
 10
-7.432879636813655
 20
-3.239147677141602
 30
0.0
 10
-7.432879636813655
 20
-3.239147677141602
 30
0.0
 10
-7.302655027471211
 20
-3.495359428379632
 30
0.0
 10
-7.302655027471211
 20
-3.495359428379632
 30
0.0
 10
-7.302655027471211
 20
-3.495359428379632
 30
0.0
 10
-6.946587183593214
 20
-3.533048772988265
 30
0.0
 10
-6.946587183593214
 20
-3.533048772988265
 30
0.0
 10
-6.946587183593214
 20
-3.533048772988265
 30
0.0
 10
-7.199991182010765
 20
-3.786022134470161
 30
0.0
 10
-7.199991182010765
 20
-3.786022134470161
 30
0.0
 10
-7.199991182010765
 20
-3.786022134470161
 30
0.0
 10
-7.195736489086482
 20
-3.806175943058872
 30
0.0
 10
-7.195736489086482
 20
-3.806175943058872
 30
0.0
 10
-7.195736489086482
 20
-3.806175943058872
 30
0.0
 10
-7.014541692039767
 20
-3.867119682192942
 30
0.0
 10
-7.014541692039767
 20
-3.867119682192942
 30
0.0
 10
-7.014541692039767
 20
-3.867119682192942
 30
0.0
 10
-6.846214326630459
 20
-3.733656683094363
 30
0.0
 10
-6.846214326630459
 20
-3.733656683094363
 30
0.0
 10
-6.846214326630459
 20
-3.733656683094363
 30
0.0
 10
-6.848160805579626
 20
-3.921035426537102
 30
0.0
 10
-6.848160805579626
 20
-3.921035426537102
 30
0.0
 10
-6.848160805579626
 20
-3.921035426537102
 30
0.0
 10
-6.680419106402812
 20
-3.921035426537102
 30
0.0
 10
-6.680419106402812
 20
-3.921035426537102
 30
0.0
 10
-6.680419106402812
 20
-3.921035426537102
 30
0.0
 10
-6.648396943867414
 20
-3.906634927408758
 30
0.0
 10
-6.648396943867414
 20
-3.906634927408758
 30
0.0
 10
-6.648396943867414
 20
-3.906634927408758
 30
0.0
 10
-6.625400931503371
 20
-3.75801350817508
 30
0.0
 10
-6.625400931503371
 20
-3.75801350817508
 30
0.0
 10
-6.625400931503371
 20
-3.75801350817508
 30
0.0
 10
-6.524390731875847
 20
-3.869427896168059
 30
0.0
 10
-6.524390731875847
 20
-3.869427896168059
 30
0.0
 10
-6.524390731875847
 20
-3.869427896168059
 30
0.0
 10
-6.375941567416431
 20
-3.845346678726163
 30
0.0
 10
-6.375941567416431
 20
-3.845346678726163
 30
0.0
 10
-6.375941567416431
 20
-3.845346678726163
 30
0.0
 10
-6.419263643143448
 20
-3.921035426537102
 30
0.0
 10
-6.419263643143448
 20
-3.921035426537102
 30
0.0
 10
-6.419263643143448
 20
-3.921035426537102
 30
0.0
 10
-0.4313259547532796
 20
-3.921035426537102
 30
0.0
 10
-0.4313259547532796
 20
-3.921035426537102
 30
0.0
 10
-0.4313259547532796
 20
-3.921035426537102
 30
0.0
 10
-0.4745963540480175
 20
-3.845415580635868
 30
0.0
 10
-0.4745963540480175
 20
-3.845415580635868
 30
0.0
 10
-0.4745963540480175
 20
-3.845415580635868
 30
0.0
 10
-0.3261644150660283
 20
-3.869496798077765
 30
0.0
 10
-0.3261644150660283
 20
-3.869496798077765
 30
0.0
 10
-0.3261644150660283
 20
-3.869496798077765
 30
0.0
 10
-0.2251197644836506
 20
-3.75815131199449
 30
0.0
 10
-0.2251197644836506
 20
-3.75815131199449
 30
0.0
 10
-0.2251197644836506
 20
-3.75815131199449
 30
0.0
 10
-0.2021237521196079
 20
-3.906738280273315
 30
0.0
 10
-0.2021237521196079
 20
-3.906738280273315
 30
0.0
 10
-0.2021237521196079
 20
-3.906738280273315
 30
0.0
 10
-0.1703771972230307
 20
-3.921035426537102
 30
0.0
 10
-0.1703771972230307
 20
-3.921035426537102
 30
0.0
 10
-0.1703771972230307
 20
-3.921035426537102
 30
0.0
 10
-0.0802879502837475
 20
-3.921035426537102
 30
0.0
 10
-0.0802879502837475
 20
-3.921035426537102
 30
0.0
 10
-0.0802879502837475
 20
-3.921035426537102
 30
0.0
 10
-0.1410594346435546
 20
-3.814892034636554
 30
0.0
 10
-0.1410594346435546
 20
-3.814892034636554
 30
0.0
 10
-0.1410594346435546
 20
-3.814892034636554
 30
0.0
 10
0.0073380533835822
 20
-3.838904350168746
 30
0.0
 10
0.0073380533835822
 20
-3.838904350168746
 30
0.0
 10
0.0073380533835822
 20
-3.838904350168746
 30
0.0
 10
0.1083827039659599
 20
-3.727593315040324
 30
0.0
 10
0.1083827039659599
 20
-3.727593315040324
 30
0.0
 10
0.1083827039659599
 20
-3.727593315040324
 30
0.0
 10
0.1313270398977238
 20
-3.876145832364297
 30
0.0
 10
0.1313270398977238
 20
-3.876145832364297
 30
0.0
 10
0.1313270398977238
 20
-3.876145832364297
 30
0.0
 10
0.2311659070602641
 20
-3.921035426537102
 30
0.0
 10
0.2311659070602641
 20
-3.921035426537102
 30
0.0
 10
0.2311659070602641
 20
-3.921035426537102
 30
0.0
 10
0.3270084634599145
 20
-3.921035426537102
 30
0.0
 10
0.3270084634599145
 20
-3.921035426537102
 30
0.0
 10
0.3270084634599145
 20
-3.921035426537102
 30
0.0
 10
0.3314181856810343
 20
-3.918072644419787
 30
0.0
 10
0.3314181856810343
 20
-3.918072644419787
 30
0.0
 10
0.3314181856810343
 20
-3.918072644419787
 30
0.0
 10
0.3291788736156219
 20
-3.70327094091446
 30
0.0
 10
0.3291788736156219
 20
-3.70327094091446
 30
0.0
 10
0.3291788736156219
 20
-3.70327094091446
 30
0.0
 10
0.497506239024929
 20
-3.836699489058186
 30
0.0
 10
0.497506239024929
 20
-3.836699489058186
 30
0.0
 10
0.497506239024929
 20
-3.836699489058186
 30
0.0
 10
0.6600458440190162
 20
-3.781991372752418
 30
0.0
 10
0.6600458440190162
 20
-3.781991372752418
 30
0.0
 10
0.6600458440190162
 20
-3.781991372752418
 30
0.0
 10
0.6829901799507802
 20
-3.673677570696164
 30
0.0
 10
0.6829901799507802
 20
-3.673677570696164
 30
0.0
 10
0.6829901799507802
 20
-3.673677570696164
 30
0.0
 10
0.4295689560558022
 20
-3.420738660169121
 30
0.0
 10
0.4295689560558022
 20
-3.420738660169121
 30
0.0
 10
0.4295689560558022
 20
-3.420738660169121
 30
0.0
 10
0.7856195744563729
 20
-3.383014864605635
 30
0.0
 10
0.7856195744563729
 20
-3.383014864605635
 30
0.0
 10
0.7856195744563729
 20
-3.383014864605635
 30
0.0
 10
0.9478835718116402
 20
-3.063792316942385
 30
0.0
 10
0.9478835718116402
 20
-3.063792316942385
 30
0.0
 10
0.9478835718116402
 20
-3.063792316942385
 30
0.0
 10
0.9659358721543493
 20
-3.104375541758628
 30
0.0
 10
0.9659358721543493
 20
-3.104375541758628
 30
0.0
 10
0.9659358721543493
 20
-3.104375541758628
 30
0.0
 10
0.9806464298763661
 20
-3.075746798276202
 30
0.0
 10
0.9806464298763661
 20
-3.075746798276202
 30
0.0
 10
0.9806464298763661
 20
-3.075746798276202
 30
0.0
 10
0.9059567597561496
 20
-2.945246581294938
 30
0.0
 10
0.9059567597561496
 20
-2.945246581294938
 30
0.0
 10
0.9059567597561496
 20
-2.945246581294938
 30
0.0
 10
1.054405924215565
 20
-2.969293347781982
 30
0.0
 10
1.054405924215565
 20
-2.969293347781982
 30
0.0
 10
1.054405924215565
 20
-2.969293347781982
 30
0.0
 10
1.15541612384309
 20
-2.857878959789002
 30
0.0
 10
1.15541612384309
 20
-2.857878959789002
 30
0.0
 10
1.15541612384309
 20
-2.857878959789002
 30
0.0
 10
1.158413356915258
 20
-2.877412651190369
 30
0.0
 10
1.158413356915258
 20
-2.877412651190369
 30
0.0
 10
1.158413356915258
 20
-2.877412651190369
 30
0.0
 10
1.162478569587853
 20
-2.847578124288105
 30
0.0
 10
1.162478569587853
 20
-2.847578124288105
 30
0.0
 10
1.162478569587853
 20
-2.847578124288105
 30
0.0
 10
1.048514810935788
 20
-2.749530706777895
 30
0.0
 10
1.048514810935788
 20
-2.749530706777895
 30
0.0
 10
1.048514810935788
 20
-2.749530706777895
 30
0.0
 10
1.196481662027268
 20
-2.722658961992946
 30
0.0
 10
1.196481662027268
 20
-2.722658961992946
 30
0.0
 10
1.196481662027268
 20
-2.722658961992946
 30
0.0
 10
1.254531520953728
 20
-2.58399386871164
 30
0.0
 10
1.254531520953728
 20
-2.58399386871164
 30
0.0
 10
1.254531520953728
 20
-2.58399386871164
 30
0.0
 10
1.325810546543547
 20
-2.716388888209791
 30
0.0
 10
1.325810546543547
 20
-2.716388888209791
 30
0.0
 10
1.325810546543547
 20
-2.716388888209791
 30
0.0
 10
1.353888074748334
 20
-2.718697102184909
 30
0.0
 10
1.353888074748334
 20
-2.718697102184909
 30
0.0
 10
1.353888074748334
 20
-2.718697102184909
 30
0.0
 10
1.3706656897615
 20
-2.686072047939593
 30
0.0
 10
1.3706656897615
 20
-2.686072047939593
 30
0.0
 10
1.3706656897615
 20
-2.686072047939593
 30
0.0
 10
1.295941568686431
 20
-2.555640732868034
 30
0.0
 10
1.295941568686431
 20
-2.555640732868034
 30
0.0
 10
1.295941568686431
 20
-2.555640732868034
 30
0.0
 10
1.444390733145847
 20
-2.579618597445373
 30
0.0
 10
1.444390733145847
 20
-2.579618597445373
 30
0.0
 10
1.444390733145847
 20
-2.579618597445373
 30
0.0
 10
1.528037651527713
 20
-2.487358940350382
 30
0.0
 10
1.528037651527713
 20
-2.487358940350382
 30
0.0
 10
1.528037651527713
 20
-2.487358940350382
 30
0.0
 10
1.438017306498135
 20
-2.397476399140214
 30
0.0
 10
1.438017306498135
 20
-2.397476399140214
 30
0.0
 10
1.438017306498135
 20
-2.397476399140214
 30
0.0
 10
1.794067924898705
 20
-2.359787054531581
 30
0.0
 10
1.794067924898705
 20
-2.359787054531581
 30
0.0
 10
1.794067924898705
 20
-2.359787054531581
 30
0.0
 10
1.904379882336405
 20
-2.142849391825399
 30
0.0
 10
1.904379882336405
 20
-2.142849391825399
 30
0.0
 10
1.904379882336405
 20
-2.142849391825399
 30
0.0
 10
1.876577961770439
 20
-2.043113877527416
 30
0.0
 10
1.876577961770439
 20
-2.043113877527416
 30
0.0
 10
1.876577961770439
 20
-2.043113877527416
 30
0.0
 10
1.671594780398073
 20
-1.978897297682359
 30
0.0
 10
1.671594780398073
 20
-1.978897297682359
 30
0.0
 10
1.671594780398073
 20
-1.978897297682359
 30
0.0
 10
1.85053303990195
 20
-1.860007052486387
 30
0.0
 10
1.85053303990195
 20
-1.860007052486387
 30
0.0
 10
1.85053303990195
 20
-1.860007052486387
 30
0.0
 10
1.848293727836537
 20
-1.64520534898106
 30
0.0
 10
1.848293727836537
 20
-1.64520534898106
 30
0.0
 10
1.848293727836537
 20
-1.64520534898106
 30
0.0
 10
2.016655544200697
 20
-1.778633897124786
 30
0.0
 10
2.016655544200697
 20
-1.778633897124786
 30
0.0
 10
2.016655544200697
 20
-1.778633897124786
 30
0.0
 10
2.145123154845663
 20
-1.735363497830048
 30
0.0
 10
2.145123154845663
 20
-1.735363497830048
 30
0.0
 10
2.145123154845663
 20
-1.735363497830048
 30
0.0
 10
2.171788193901497
 20
-1.683514810777038
 30
0.0
 10
2.171788193901497
 20
-1.683514810777038
 30
0.0
 10
2.171788193901497
 20
-1.683514810777038
 30
0.0
 10
2.097029621871576
 20
-1.553014593795774
 30
0.0
 10
2.097029621871576
 20
-1.553014593795774
 30
0.0
 10
2.097029621871576
 20
-1.553014593795774
 30
0.0
 10
2.245513237285844
 20
-1.57709581123767
 30
0.0
 10
2.245513237285844
 20
-1.57709581123767
 30
0.0
 10
2.245513237285844
 20
-1.57709581123767
 30
0.0
 10
2.303563096212303
 20
-1.513051486166876
 30
0.0
 10
2.303563096212303
 20
-1.513051486166876
 30
0.0
 10
2.303563096212303
 20
-1.513051486166876
 30
0.0
 10
2.302253959927909
 20
-1.462718641127376
 30
0.0
 10
2.302253959927909
 20
-1.462718641127376
 30
0.0
 10
2.302253959927909
 20
-1.462718641127376
 30
0.0
 10
2.173924153102352
 20
-1.384273816928237
 30
0.0
 10
2.173924153102352
 20
-1.384273816928237
 30
0.0
 10
2.173924153102352
 20
-1.384273816928237
 30
0.0
 10
2.31565538136553
 20
-1.333975422843589
 30
0.0
 10
2.31565538136553
 20
-1.333975422843589
 30
0.0
 10
2.31565538136553
 20
-1.333975422843589
 30
0.0
 10
2.350588649585964
 20
-1.187937825223849
 30
0.0
 10
2.350588649585964
 20
-1.187937825223849
 30
0.0
  0
SPLINE
  5
17F
330
175
100
AcDbEntity
  8
Default
 62
     1
420
 16711680
370
    18
100
AcDbSpline
210
0.0
220
0.0
230
1.0
 70
    11
 71
     3
 72
   452
 73
   448
 74
     0
 42
0.0000000001
 43
0.0000000001
 40
0.0
 40
0.0
 40
0.0
 40
0.0
 40
1.0
 40
1.0
 40
1.0
 40
2.0
 40
2.0
 40
2.0
 40
3.0
 40
3.0
 40
3.0
 40
4.0
 40
4.0
 40
4.0
 40
5.0
 40
5.0
 40
5.0
 40
6.0
 40
6.0
 40
6.0
 40
7.0
 40
7.0
 40
7.0
 40
8.0
 40
8.0
 40
8.0
 40
9.0
 40
9.0
 40
9.0
 40
10.0
 40
10.0
 40
10.0
 40
11.0
 40
11.0
 40
11.0
 40
12.0
 40
12.0
 40
12.0
 40
13.0
 40
13.0
 40
13.0
 40
14.0
 40
14.0
 40
14.0
 40
15.0
 40
15.0
 40
15.0
 40
16.0
 40
16.0
 40
16.0
 40
17.0
 40
17.0
 40
17.0
 40
18.0
 40
18.0
 40
18.0
 40
19.0
 40
19.0
 40
19.0
 40
20.0
 40
20.0
 40
20.0
 40
21.0
 40
21.0
 40
21.0
 40
22.0
 40
22.0
 40
22.0
 40
23.0
 40
23.0
 40
23.0
 40
24.0
 40
24.0
 40
24.0
 40
25.0
 40
25.0
 40
25.0
 40
26.0
 40
26.0
 40
26.0
 40
27.0
 40
27.0
 40
27.0
 40
28.0
 40
28.0
 40
28.0
 40
29.0
 40
29.0
 40
29.0
 40
30.0
 40
30.0
 40
30.0
 40
31.0
 40
31.0
 40
31.0
 40
32.0
 40
32.0
 40
32.0
 40
33.0
 40
33.0
 40
33.0
 40
34.0
 40
34.0
 40
34.0
 40
35.0
 40
35.0
 40
35.0
 40
36.0
 40
36.0
 40
36.0
 40
37.0
 40
37.0
 40
37.0
 40
38.0
 40
38.0
 40
38.0
 40
39.0
 40
39.0
 40
39.0
 40
40.0
 40
40.0
 40
40.0
 40
41.0
 40
41.0
 40
41.0
 40
42.0
 40
42.0
 40
42.0
 40
43.0
 40
43.0
 40
43.0
 40
44.0
 40
44.0
 40
44.0
 40
45.0
 40
45.0
 40
45.0
 40
46.0
 40
46.0
 40
46.0
 40
47.0
 40
47.0
 40
47.0
 40
48.0
 40
48.0
 40
48.0
 40
49.0
 40
49.0
 40
49.0
 40
50.0
 40
50.0
 40
50.0
 40
51.0
 40
51.0
 40
51.0
 40
52.0
 40
52.0
 40
52.0
 40
53.0
 40
53.0
 40
53.0
 40
54.0
 40
54.0
 40
54.0
 40
55.0
 40
55.0
 40
55.0
 40
56.0
 40
56.0
 40
56.0
 40
57.0
 40
57.0
 40
57.0
 40
58.0
 40
58.0
 40
58.0
 40
59.0
 40
59.0
 40
59.0
 40
60.0
 40
60.0
 40
60.0
 40
61.0
 40
61.0
 40
61.0
 40
62.0
 40
62.0
 40
62.0
 40
63.0
 40
63.0
 40
63.0
 40
64.0
 40
64.0
 40
64.0
 40
65.0
 40
65.0
 40
65.0
 40
66.0
 40
66.0
 40
66.0
 40
67.0
 40
67.0
 40
67.0
 40
68.0
 40
68.0
 40
68.0
 40
69.0
 40
69.0
 40
69.0
 40
70.0
 40
70.0
 40
70.0
 40
71.0
 40
71.0
 40
71.0
 40
72.0
 40
72.0
 40
72.0
 40
73.0
 40
73.0
 40
73.0
 40
74.0
 40
74.0
 40
74.0
 40
75.0
 40
75.0
 40
75.0
 40
76.0
 40
76.0
 40
76.0
 40
77.0
 40
77.0
 40
77.0
 40
78.0
 40
78.0
 40
78.0
 40
79.0
 40
79.0
 40
79.0
 40
80.0
 40
80.0
 40
80.0
 40
81.0
 40
81.0
 40
81.0
 40
82.0
 40
82.0
 40
82.0
 40
83.0
 40
83.0
 40
83.0
 40
84.0
 40
84.0
 40
84.0
 40
85.0
 40
85.0
 40
85.0
 40
86.0
 40
86.0
 40
86.0
 40
87.0
 40
87.0
 40
87.0
 40
88.0
 40
88.0
 40
88.0
 40
89.0
 40
89.0
 40
89.0
 40
90.0
 40
90.0
 40
90.0
 40
91.0
 40
91.0
 40
91.0
 40
92.0
 40
92.0
 40
92.0
 40
93.0
 40
93.0
 40
93.0
 40
94.0
 40
94.0
 40
94.0
 40
95.0
 40
95.0
 40
95.0
 40
96.0
 40
96.0
 40
96.0
 40
97.0
 40
97.0
 40
97.0
 40
98.0
 40
98.0
 40
98.0
 40
99.0
 40
99.0
 40
99.0
 40
100.0
 40
100.0
 40
100.0
 40
101.0
 40
101.0
 40
101.0
 40
102.0
 40
102.0
 40
102.0
 40
103.0
 40
103.0
 40
103.0
 40
104.0
 40
104.0
 40
104.0
 40
105.0
 40
105.0
 40
105.0
 40
106.0
 40
106.0
 40
106.0
 40
107.0
 40
107.0
 40
107.0
 40
108.0
 40
108.0
 40
108.0
 40
109.0
 40
109.0
 40
109.0
 40
110.0
 40
110.0
 40
110.0
 40
111.0
 40
111.0
 40
111.0
 40
112.0
 40
112.0
 40
112.0
 40
113.0
 40
113.0
 40
113.0
 40
114.0
 40
114.0
 40
114.0
 40
115.0
 40
115.0
 40
115.0
 40
116.0
 40
116.0
 40
116.0
 40
117.0
 40
117.0
 40
117.0
 40
118.0
 40
118.0
 40
118.0
 40
119.0
 40
119.0
 40
119.0
 40
120.0
 40
120.0
 40
120.0
 40
121.0
 40
121.0
 40
121.0
 40
122.0
 40
122.0
 40
122.0
 40
123.0
 40
123.0
 40
123.0
 40
124.0
 40
124.0
 40
124.0
 40
125.0
 40
125.0
 40
125.0
 40
126.0
 40
126.0
 40
126.0
 40
127.0
 40
127.0
 40
127.0
 40
128.0
 40
128.0
 40
128.0
 40
129.0
 40
129.0
 40
129.0
 40
130.0
 40
130.0
 40
130.0
 40
131.0
 40
131.0
 40
131.0
 40
132.0
 40
132.0
 40
132.0
 40
133.0
 40
133.0
 40
133.0
 40
134.0
 40
134.0
 40
134.0
 40
135.0
 40
135.0
 40
135.0
 40
136.0
 40
136.0
 40
136.0
 40
137.0
 40
137.0
 40
137.0
 40
138.0
 40
138.0
 40
138.0
 40
139.0
 40
139.0
 40
139.0
 40
140.0
 40
140.0
 40
140.0
 40
141.0
 40
141.0
 40
141.0
 40
142.0
 40
142.0
 40
142.0
 40
143.0
 40
143.0
 40
143.0
 40
144.0
 40
144.0
 40
144.0
 40
145.0
 40
145.0
 40
145.0
 40
146.0
 40
146.0
 40
146.0
 40
147.0
 40
147.0
 40
147.0
 40
148.0
 40
148.0
 40
148.0
 40
149.0
 40
149.0
 40
149.0
 40
149.0
 10
-6.26209838710635
 20
10.75646660429873
 30
0.0
 10
-6.26209838710635
 20
10.75646660429873
 30
0.0
 10
-8.119831676572472
 20
1.786660969605418
 30
0.0
 10
-8.119831676572472
 20
1.786660969605418
 30
0.0
 10
-8.117867972145879
 20
1.788710801419142
 30
0.0
 10
-8.116937796364862
 20
1.791363524942784
 30
0.0
 10
-8.11475016073173
 20
1.793275552937098
 30
0.0
 10
-7.741491290382335
 20
2.11983615398393
 30
0.0
 10
-7.23239230504954
 20
2.201381564119793
 30
0.0
 10
-6.789887015446625
 20
2.036327039421474
 30
0.0
 10
-7.183661429410681
 20
2.831093342391185
 30
0.0
 10
-7.307702092357101
 20
3.727782795292012
 30
0.0
 10
-7.136997611062973
 20
4.613671873846582
 30
0.0
 10
-7.116637096745146
 20
4.719298501424341
 30
0.0
 10
-7.091660154477085
 20
4.823064777440067
 30
0.0
 10
-7.063513724362593
 20
4.925366887874561
 30
0.0
 10
-7.062015107826509
 20
4.944004854449762
 30
0.0
 10
-7.057140297714881
 20
4.961902125495635
 30
0.0
 10
-7.049078774279397
 20
4.978111299753736
 30
0.0
 10
-6.548782007911415
 20
6.70591281299366
 30
0.0
 10
-4.95747517779709
 20
7.924580889945937
 30
0.0
 10
-3.132556422827972
 20
7.924580889945937
 30
0.0
 10
-2.87364027163402
 20
7.924580889945937
 30
0.0
 10
-2.612295328122967
 20
7.899552271245597
 30
0.0
 10
-2.355876871155822
 20
7.850132376509689
 30
0.0
 10
-0.8415506996594039
 20
7.558384465341306
 30
0.0
 10
0.3164320203201975
 20
6.459743515095133
 30
0.0
 10
0.7588511825359816
 20
5.086011690351761
 30
0.0
 10
0.7946112736728749
 20
5.055126409326496
 30
0.0
 10
0.8146961803518814
 20
5.007566866152622
 30
0.0
 10
0.8082538517944643
 20
4.957216795635696
 30
0.0
 10
0.8073236760134468
 20
4.949861516774687
 30
0.0
 10
0.8052910696771494
 20
4.942988551281614
 30
0.0
 10
0.8033618162054095
 20
4.936081134833688
 30
0.0
 10
0.9613883461138195
 20
4.372136229375716
 30
0.0
 10
0.9995255531355353
 20
3.766522894023647
 30
0.0
 10
0.8946912975193827
 20
3.153898789359094
 30
0.0
 10
0.8953114147067276
 20
3.134278970570597
 30
0.0
 10
0.8920385739957403
 20
3.115468749221133
 30
0.0
 10
0.8854239906640606
 20
3.09798488963349
 30
0.0
 10
0.8835980900568782
 20
3.088321396797364
 30
0.0
 10
0.8824267575918933
 20
3.078675129438664
 30
0.0
 10
0.8805664060298584
 20
3.068994411125112
 30
0.0
 10
0.8153162975392264
 20
2.730341524925053
 30
0.0
 10
0.7083116317673664
 20
2.408483479215587
 30
0.0
 10
0.5669249130527132
 20
2.107364908327325
 30
0.0
 10
0.5626185436961508
 20
2.078064371225275
 30
0.0
 10
0.549699435626464
 20
2.051158175485474
 30
0.0
 10
0.5299590384959825
 20
2.029815808954352
 30
0.0
 10
0.4812798392894022
 20
1.931613362147305
 30
0.0
 10
0.4291899955524247
 20
1.835546874541113
 30
0.0
 10
0.3731727429622623
 20
1.742236463323121
 30
0.0
 10
0.8158330618620139
 20
1.971989881234433
 30
0.0
 10
1.355403916761843
 20
1.935316839793948
 30
0.0
 10
1.765025769958049
 20
1.639520941430398
 30
0.0
 10
1.765025769958049
 20
1.639520941430398
 30
0.0
 10
-0.2110293239489788
 20
11.18055785853299
 30
0.0
 10
-0.2110293239489788
 20
11.18055785853299
 30
0.0
 10
-0.2110293239489788
 20
11.18055785853299
 30
0.0
 10
-0.2813781737577805
 20
11.13864827195492
 30
0.0
 10
-0.2813781737577805
 20
11.13864827195492
 30
0.0
 10
-0.2813781737577805
 20
11.13864827195492
 30
0.0
 10
-0.2871831596504264
 20
10.98837320688832
 30
0.0
 10
-0.2871831596504264
 20
10.98837320688832
 30
0.0
 10
-0.2871831596504264
 20
10.98837320688832
 30
0.0
 10
-0.4003028699086048
 20
11.08745415304411
 30
0.0
 10
-0.4003028699086048
 20
11.08745415304411
 30
0.0
 10
-0.4003028699086048
 20
11.08745415304411
 30
0.0
 10
-0.5450141057665242
 20
11.04652641867934
 30
0.0
 10
-0.5450141057665242
 20
11.04652641867934
 30
0.0
 10
-0.5450141057665242
 20
11.04652641867934
 30
0.0
 10
-0.4857756888976533
 20
11.18474364954756
 30
0.0
 10
-0.4857756888976533
 20
11.18474364954756
 30
0.0
 10
-0.4857756888976533
 20
11.18474364954756
 30
0.0
 10
-0.5693537053698143
 20
11.30973171375243
 30
0.0
 10
-0.5693537053698143
 20
11.30973171375243
 30
0.0
 10
-0.5693537053698143
 20
11.30973171375243
 30
0.0
 10
-0.4196126301034301
 20
11.29605468467599
 30
0.0
 10
-0.4196126301034301
 20
11.29605468467599
 30
0.0
 10
-0.4196126301034301
 20
11.29605468467599
 30
0.0
 10
-0.391397298079234
 20
11.33190090320001
 30
0.0
 10
-0.391397298079234
 20
11.33190090320001
 30
0.0
 10
-0.391397298079234
 20
11.33190090320001
 30
0.0
 10
-0.421472981665465
 20
11.32337429187402
 30
0.0
 10
-0.421472981665465
 20
11.32337429187402
 30
0.0
 10
-0.421472981665465
 20
11.32337429187402
 30
0.0
 10
-0.3621828883643153
 20
11.46159152274224
 30
0.0
 10
-0.3621828883643153
 20
11.46159152274224
 30
0.0
 10
-0.3621828883643153
 20
11.46159152274224
 30
0.0
 10
-0.4457953557913289
 20
11.5865795869471
 30
0.0
 10
-0.4457953557913289
 20
11.5865795869471
 30
0.0
 10
-0.4457953557913289
 20
11.5865795869471
 30
0.0
 10
-0.2960198295700923
 20
11.57290255787066
 30
0.0
 10
-0.2960198295700923
 20
11.57290255787066
 30
0.0
 10
-0.2960198295700923
 20
11.57290255787066
 30
0.0
 10
-0.2930398219753511
 20
11.57669216290444
 30
0.0
 10
-0.2930398219753511
 20
11.57669216290444
 30
0.0
 10
-0.2930398219753511
 20
11.57669216290444
 30
0.0
 10
-0.31729329419151
 20
11.6938081839255
 30
0.0
 10
-0.31729329419151
 20
11.6938081839255
 30
0.0
 10
-0.31729329419151
 20
11.6938081839255
 30
0.0
 10
-0.4217141383494326
 20
11.71604627528279
 30
0.0
 10
-0.4217141383494326
 20
11.71604627528279
 30
0.0
 10
-0.4217141383494326
 20
11.71604627528279
 30
0.0
 10
-0.5736773002038028
 20
11.56416924081555
 30
0.0
 10
-0.5736773002038028
 20
11.56416924081555
 30
0.0
 10
-0.5736773002038028
 20
11.56416924081555
 30
0.0
 10
-0.5960531953805005
 20
11.77783406281075
 30
0.0
 10
-0.5960531953805005
 20
11.77783406281075
 30
0.0
 10
-0.5960531953805005
 20
11.77783406281075
 30
0.0
 10
-0.7874454750635552
 20
11.87541639243045
 30
0.0
 10
-0.7874454750635552
 20
11.87541639243045
 30
0.0
 10
-0.7874454750635552
 20
11.87541639243045
 30
0.0
 10
-0.5911439343140196
 20
11.96274956298153
 30
0.0
 10
-0.5911439343140196
 20
11.96274956298153
 30
0.0
 10
-0.5911439343140196
 20
11.96274956298153
 30
0.0
 10
-0.5749175345784928
 20
12.0649655460289
 30
0.0
 10
-0.5749175345784928
 20
12.0649655460289
 30
0.0
 10
-0.5749175345784928
 20
12.0649655460289
 30
0.0
 10
-0.7093968368452201
 20
12.26786444463269
 30
0.0
 10
-0.7093968368452201
 20
12.26786444463269
 30
0.0
 10
-0.7093968368452201
 20
12.26786444463269
 30
0.0
 10
-1.014804551612618
 20
12.26503946633478
 30
0.0
 10
-1.014804551612618
 20
12.26503946633478
 30
0.0
 10
-1.014804551612618
 20
12.26503946633478
 30
0.0
 10
-1.015149061161143
 20
12.25685736455731
 30
0.0
 10
-1.015149061161143
 20
12.25685736455731
 30
0.0
 10
-1.015149061161143
 20
12.25685736455731
 30
0.0
 10
-1.024381917061613
 20
12.26493611347022
 30
0.0
 10
-1.024381917061613
 20
12.26493611347022
 30
0.0
 10
-1.024381917061613
 20
12.26493611347022
 30
0.0
 10
-1.067445610627236
 20
12.26455715296685
 30
0.0
 10
-1.067445610627236
 20
12.26455715296685
 30
0.0
 10
-1.067445610627236
 20
12.26455715296685
 30
0.0
 10
-1.049582790536215
 20
12.28701917553068
 30
0.0
 10
-1.049582790536215
 20
12.28701917553068
 30
0.0
 10
-1.049582790536215
 20
12.28701917553068
 30
0.0
 10
-1.139585910088367
 20
12.36584296023319
 30
0.0
 10
-1.139585910088367
 20
12.36584296023319
 30
0.0
 10
-1.139585910088367
 20
12.36584296023319
 30
0.0
 10
-1.29874932150691
 20
12.3208327877184
 30
0.0
 10
-1.29874932150691
 20
12.3208327877184
 30
0.0
 10
-1.29874932150691
 20
12.3208327877184
 30
0.0
 10
-1.233550889448557
 20
12.4728820769599
 30
0.0
 10
-1.233550889448557
 20
12.4728820769599
 30
0.0
 10
-1.233550889448557
 20
12.4728820769599
 30
0.0
 10
-1.298577066732647
 20
12.57003376964395
 30
0.0
 10
-1.298577066732647
 20
12.57003376964395
 30
0.0
 10
-1.298577066732647
 20
12.57003376964395
 30
0.0
 10
-1.307241481878051
 20
12.5648833518935
 30
0.0
 10
-1.307241481878051
 20
12.5648833518935
 30
0.0
 10
-1.307241481878051
 20
12.5648833518935
 30
0.0
 10
-1.313012016815844
 20
12.4146082868269
 30
0.0
 10
-1.313012016815844
 20
12.4146082868269
 30
0.0
 10
-1.313012016815844
 20
12.4146082868269
 30
0.0
 10
-1.426148952551449
 20
12.51368923298269
 30
0.0
 10
-1.426148952551449
 20
12.51368923298269
 30
0.0
 10
-1.426148952551449
 20
12.51368923298269
 30
0.0
 10
-1.570842962931942
 20
12.47279594957277
 30
0.0
 10
-1.570842962931942
 20
12.47279594957277
 30
0.0
 10
-1.570842962931942
 20
12.47279594957277
 30
0.0
 10
-1.511587320585645
 20
12.61097872948614
 30
0.0
 10
-1.511587320585645
 20
12.61097872948614
 30
0.0
 10
-1.511587320585645
 20
12.61097872948614
 30
0.0
 10
-1.595199788012658
 20
12.73596679369101
 30
0.0
 10
-1.595199788012658
 20
12.73596679369101
 30
0.0
 10
-1.595199788012658
 20
12.73596679369101
 30
0.0
 10
-1.445458712746274
 20
12.72228976461457
 30
0.0
 10
-1.445458712746274
 20
12.72228976461457
 30
0.0
 10
-1.445458712746274
 20
12.72228976461457
 30
0.0
 10
-1.44258205801609
 20
12.7259243403515
 30
0.0
 10
-1.44258205801609
 20
12.7259243403515
 30
0.0
 10
-1.44258205801609
 20
12.7259243403515
 30
0.0
 10
-1.514102240289877
 20
12.7885906272282
 30
0.0
 10
-1.514102240289877
 20
12.7885906272282
 30
0.0
 10
-1.514102240289877
 20
12.7885906272282
 30
0.0
 10
-1.65879625067037
 20
12.747645667386
 30
0.0
 10
-1.65879625067037
 20
12.747645667386
 30
0.0
 10
-1.65879625067037
 20
12.747645667386
 30
0.0
 10
-1.599540608324073
 20
12.88586289825423
 30
0.0
 10
-1.599540608324073
 20
12.88586289825423
 30
0.0
 10
-1.599540608324073
 20
12.88586289825423
 30
0.0
 10
-1.683118624796234
 20
13.01086818793652
 30
0.0
 10
-1.683118624796234
 20
13.01086818793652
 30
0.0
 10
-1.683118624796234
 20
13.01086818793652
 30
0.0
 10
-1.67913953951077
 20
13.01047200195571
 30
0.0
 10
-1.67913953951077
 20
13.01047200195571
 30
0.0
 10
-1.67913953951077
 20
13.01047200195571
 30
0.0
 10
-1.837923990425935
 20
13.25007839295484
 30
0.0
 10
-1.837923990425935
 20
13.25007839295484
 30
0.0
 10
-1.837923990425935
 20
13.25007839295484
 30
0.0
 10
-2.195921087775672
 20
13.24673665033415
 30
0.0
 10
-2.195921087775672
 20
13.24673665033415
 30
0.0
 10
-2.195921087775672
 20
13.24673665033415
 30
0.0
 10
-1.973161213699418
 20
13.52706406996893
 30
0.0
 10
-1.973161213699418
 20
13.52706406996893
 30
0.0
 10
-1.973161213699418
 20
13.52706406996893
 30
0.0
 10
-1.979724120598819
 20
13.54659776137029
 30
0.0
 10
-1.979724120598819
 20
13.54659776137029
 30
0.0
 10
-1.979724120598819
 20
13.54659776137029
 30
0.0
 10
-2.166689452583328
 20
13.58640583970236
 30
0.0
 10
-2.166689452583328
 20
13.58640583970236
 30
0.0
 10
-2.166689452583328
 20
13.58640583970236
 30
0.0
 10
-2.318652614437698
 20
13.43454603071254
 30
0.0
 10
-2.318652614437698
 20
13.43454603071254
 30
0.0
 10
-2.318652614437698
 20
13.43454603071254
 30
0.0
 10
-2.341062960569248
 20
13.64822807818516
 30
0.0
 10
-2.341062960569248
 20
13.64822807818516
 30
0.0
 10
-2.341062960569248
 20
13.64822807818516
 30
0.0
 10
-2.53242078929745
 20
13.74579318232744
 30
0.0
 10
-2.53242078929745
 20
13.74579318232744
 30
0.0
 10
-2.53242078929745
 20
13.74579318232744
 30
0.0
 10
-2.336153699502767
 20
13.83312635287852
 30
0.0
 10
-2.336153699502767
 20
13.83312635287852
 30
0.0
 10
-2.336153699502767
 20
13.83312635287852
 30
0.0
 10
-2.330882703410335
 20
13.8661820440595
 30
0.0
 10
-2.330882703410335
 20
13.8661820440595
 30
0.0
 10
-2.330882703410335
 20
13.8661820440595
 30
0.0
 10
-2.476093478113615
 20
13.8661820440595
 30
0.0
 10
-2.476093478113615
 20
13.8661820440595
 30
0.0
 10
-2.476093478113615
 20
13.8661820440595
 30
0.0
 10
-2.550404187730454
 20
13.75071966887135
 30
0.0
 10
-2.550404187730454
 20
13.75071966887135
 30
0.0
 10
-2.550404187730454
 20
13.75071966887135
 30
0.0
 10
-2.48856472377022
 20
13.6136048685584
 30
0.0
 10
-2.48856472377022
 20
13.6136048685584
 30
0.0
 10
-2.48856472377022
 20
13.6136048685584
 30
0.0
 10
-2.63405110611232
 20
13.65189710487696
 30
0.0
 10
-2.63405110611232
 20
13.65189710487696
 30
0.0
 10
-2.63405110611232
 20
13.65189710487696
 30
0.0
 10
-2.745344915763317
 20
13.55076632690745
 30
0.0
 10
-2.745344915763317
 20
13.55076632690745
 30
0.0
 10
-2.745344915763317
 20
13.55076632690745
 30
0.0
 10
-2.753854301611883
 20
13.70090358815463
 30
0.0
 10
-2.753854301611883
 20
13.70090358815463
 30
0.0
 10
-2.753854301611883
 20
13.70090358815463
 30
0.0
 10
-2.876000162041417
 20
13.77066677173094
 30
0.0
 10
-2.876000162041417
 20
13.77066677173094
 30
0.0
 10
-2.876000162041417
 20
13.77066677173094
 30
0.0
 10
-2.926798094971425
 20
13.74040160789302
 30
0.0
 10
-2.926798094971425
 20
13.74040160789302
 30
0.0
 10
-2.926798094971425
 20
13.74040160789302
 30
0.0
 10
-2.932603080864071
 20
13.590109317349
 30
0.0
 10
-2.932603080864071
 20
13.590109317349
 30
0.0
 10
-2.932603080864071
 20
13.590109317349
 30
0.0
 10
-3.045740016599676
 20
13.68922471445964
 30
0.0
 10
-3.045740016599676
 20
13.68922471445964
 30
0.0
 10
-3.045740016599676
 20
13.68922471445964
 30
0.0
 10
-3.180029838614714
 20
13.65124253673476
 30
0.0
 10
-3.180029838614714
 20
13.65124253673476
 30
0.0
 10
-3.180029838614714
 20
13.65124253673476
 30
0.0
 10
-3.169918483365506
 20
13.6277125345705
 30
0.0
 10
-3.169918483365506
 20
13.6277125345705
 30
0.0
 10
-3.169918483365506
 20
13.6277125345705
 30
0.0
 10
-3.314646944700852
 20
13.66862304345784
 30
0.0
 10
-3.314646944700852
 20
13.66862304345784
 30
0.0
 10
-3.314646944700852
 20
13.66862304345784
 30
0.0
 10
-3.427749429481604
 20
13.56954209730206
 30
0.0
 10
-3.427749429481604
 20
13.56954209730206
 30
0.0
 10
-3.427749429481604
 20
13.56954209730206
 30
0.0
 10
-3.43355441537425
 20
13.71981716236866
 30
0.0
 10
-3.43355441537425
 20
13.71981716236866
 30
0.0
 10
-3.43355441537425
 20
13.71981716236866
 30
0.0
 10
-3.533221027762528
 20
13.77915893210209
 30
0.0
 10
-3.533221027762528
 20
13.77915893210209
 30
0.0
 10
-3.533221027762528
 20
13.77915893210209
 30
0.0
 10
-3.598074950272356
 20
13.72183254322753
 30
0.0
 10
-3.598074950272356
 20
13.72183254322753
 30
0.0
 10
-3.598074950272356
 20
13.72183254322753
 30
0.0
 10
-3.575905760824774
 20
13.57309054565187
 30
0.0
 10
-3.575905760824774
 20
13.57309054565187
 30
0.0
 10
-3.575905760824774
 20
13.57309054565187
 30
0.0
 10
-3.70547580202502
 20
13.64946831255985
 30
0.0
 10
-3.70547580202502
 20
13.64946831255985
 30
0.0
 10
-3.70547580202502
 20
13.64946831255985
 30
0.0
 10
-3.840058457156304
 20
13.58246120537174
 30
0.0
 10
-3.840058457156304
 20
13.58246120537174
 30
0.0
 10
-3.840058457156304
 20
13.58246120537174
 30
0.0
 10
-3.807450628388415
 20
13.72925672399824
 30
0.0
 10
-3.807450628388415
 20
13.72925672399824
 30
0.0
 10
-3.807450628388415
 20
13.72925672399824
 30
0.0
 10
-3.912784422849929
 20
13.83655422288635
 30
0.0
 10
-3.912784422849929
 20
13.83655422288635
 30
0.0
 10
-3.912784422849929
 20
13.83655422288635
 30
0.0
 10
-3.763077798538397
 20
13.85090304558241
 30
0.0
 10
-3.763077798538397
 20
13.85090304558241
 30
0.0
 10
-3.763077798538397
 20
13.85090304558241
 30
0.0
 10
-3.755136853444896
 20
13.8661820440595
 30
0.0
 10
-3.755136853444896
 20
13.8661820440595
 30
0.0
 10
-3.755136853444896
 20
13.8661820440595
 30
0.0
 10
-4.032759873123754
 20
13.8661820440595
 30
0.0
 10
-4.032759873123754
 20
13.8661820440595
 30
0.0
 10
-4.032759873123754
 20
13.8661820440595
 30
0.0
 10
-4.024216036320334
 20
13.81252468187673
 30
0.0
 10
-4.024216036320334
 20
13.81252468187673
 30
0.0
 10
-4.024216036320334
 20
13.81252468187673
 30
0.0
 10
-3.827966172003078
 20
13.7252259622805
 30
0.0
 10
-3.827966172003078
 20
13.7252259622805
 30
0.0
 10
-3.827966172003078
 20
13.7252259622805
 30
0.0
 10
-4.019358451686132
 20
13.62762640718337
 30
0.0
 10
-4.019358451686132
 20
13.62762640718337
 30
0.0
 10
-4.019358451686132
 20
13.62762640718337
 30
0.0
 10
-4.04173434686283
 20
13.41394435971075
 30
0.0
 10
-4.04173434686283
 20
13.41394435971075
 30
0.0
 10
-4.04173434686283
 20
13.41394435971075
 30
0.0
 10
-4.193680283239774
 20
13.56583861965541
 30
0.0
 10
-4.193680283239774
 20
13.56583861965541
 30
0.0
 10
-4.193680283239774
 20
13.56583861965541
 30
0.0
 10
-4.380680066179135
 20
13.52603054132335
 30
0.0
 10
-4.380680066179135
 20
13.52603054132335
 30
0.0
 10
-4.380680066179135
 20
13.52603054132335
 30
0.0
 10
-4.387208522123684
 20
13.50649684992199
 30
0.0
 10
-4.387208522123684
 20
13.50649684992199
 30
0.0
 10
-4.387208522123684
 20
13.50649684992199
 30
0.0
 10
-4.164431422570003
 20
13.22616943028721
 30
0.0
 10
-4.164431422570003
 20
13.22616943028721
 30
0.0
 10
-4.164431422570003
 20
13.22616943028721
 30
0.0
 10
-4.522514647306871
 20
13.22949394743047
 30
0.0
 10
-4.522514647306871
 20
13.22949394743047
 30
0.0
 10
-4.522514647306871
 20
13.22949394743047
 30
0.0
 10
-4.681264647267183
 20
12.98990478190877
 30
0.0
 10
-4.681264647267183
 20
12.98990478190877
 30
0.0
 10
-4.681264647267183
 20
12.98990478190877
 30
0.0
 10
-4.677233885549441
 20
12.99028374241215
 30
0.0
 10
-4.677233885549441
 20
12.99028374241215
 30
0.0
 10
-4.677233885549441
 20
12.99028374241215
 30
0.0
 10
-4.760863578453881
 20
12.86527845272986
 30
0.0
 10
-4.760863578453881
 20
12.86527845272986
 30
0.0
 10
-4.760863578453881
 20
12.86527845272986
 30
0.0
 10
-4.701573485152731
 20
12.72706122186164
 30
0.0
 10
-4.701573485152731
 20
12.72706122186164
 30
0.0
 10
-4.701573485152731
 20
12.72706122186164
 30
0.0
 10
-4.846301946488077
 20
12.76797173074898
 30
0.0
 10
-4.846301946488077
 20
12.76797173074898
 30
0.0
 10
-4.846301946488077
 20
12.76797173074898
 30
0.0
 10
-4.917787677807011
 20
12.70533989482714
 30
0.0
 10
-4.917787677807011
 20
12.70533989482714
 30
0.0
 10
-4.917787677807011
 20
12.70533989482714
 30
0.0
 10
-4.914962699509106
 20
12.7017053190902
 30
0.0
 10
-4.914962699509106
 20
12.7017053190902
 30
0.0
 10
-4.914962699509106
 20
12.7017053190902
 30
0.0
 10
-4.765187173287869
 20
12.71538234816664
 30
0.0
 10
-4.765187173287869
 20
12.71538234816664
 30
0.0
 10
-4.765187173287869
 20
12.71538234816664
 30
0.0
 10
-4.848834091669736
 20
12.59037705848435
 30
0.0
 10
-4.848834091669736
 20
12.59037705848435
 30
0.0
 10
-4.848834091669736
 20
12.59037705848435
 30
0.0
 10
-4.789526772891159
 20
12.45219427857098
 30
0.0
 10
-4.789526772891159
 20
12.45219427857098
 30
0.0
 10
-4.789526772891159
 20
12.45219427857098
 30
0.0
 10
-4.934238008749079
 20
12.49310478745832
 30
0.0
 10
-4.934238008749079
 20
12.49310478745832
 30
0.0
 10
-4.934238008749079
 20
12.49310478745832
 30
0.0
 10
-5.047340493529831
 20
12.39400661582511
 30
0.0
 10
-5.047340493529831
 20
12.39400661582511
 30
0.0
 10
-5.047340493529831
 20
12.39400661582511
 30
0.0
 10
-5.053197155854756
 20
12.54428168089171
 30
0.0
 10
-5.053197155854756
 20
12.54428168089171
 30
0.0
 10
-5.053197155854756
 20
12.54428168089171
 30
0.0
 10
-5.069923094435643
 20
12.55427245779893
 30
0.0
 10
-5.069923094435643
 20
12.55427245779893
 30
0.0
 10
-5.069923094435643
 20
12.55427245779893
 30
0.0
 10
-5.137636446198229
 20
12.45307277791972
 30
0.0
 10
-5.137636446198229
 20
12.45307277791972
 30
0.0
 10
-5.137636446198229
 20
12.45307277791972
 30
0.0
 10
-5.078346352897079
 20
12.31487277252892
 30
0.0
 10
-5.078346352897079
 20
12.31487277252892
 30
0.0
 10
-5.078346352897079
 20
12.31487277252892
 30
0.0
 10
-5.22300591232272
 20
12.35578328141626
 30
0.0
 10
-5.22300591232272
 20
12.35578328141626
 30
0.0
 10
-5.22300591232272
 20
12.35578328141626
 30
0.0
 10
-5.289100069207239
 20
12.29790567726406
 30
0.0
 10
-5.289100069207239
 20
12.29790567726406
 30
0.0
 10
-5.289100069207239
 20
12.29790567726406
 30
0.0
 10
-5.279608831145375
 20
12.28589951949797
 30
0.0
 10
-5.279608831145375
 20
12.28589951949797
 30
0.0
 10
-5.279608831145375
 20
12.28589951949797
 30
0.0
 10
-5.25836981747881
 20
12.25921725496471
 30
0.0
 10
-5.25836981747881
 20
12.25921725496471
 30
0.0
 10
-5.25836981747881
 20
12.25921725496471
 30
0.0
 10
-5.234684786017717
 20
12.22938272806245
 30
0.0
 10
-5.234684786017717
 20
12.22938272806245
 30
0.0
 10
-5.234684786017717
 20
12.22938272806245
 30
0.0
 10
-5.592733559799733
 20
12.23272447068314
 30
0.0
 10
-5.592733559799733
 20
12.23272447068314
 30
0.0
 10
-5.592733559799733
 20
12.23272447068314
 30
0.0
 10
-5.772343612923233
 20
11.96166435790368
 30
0.0
 10
-5.772343612923233
 20
11.96166435790368
 30
0.0
 10
-5.772343612923233
 20
11.96166435790368
 30
0.0
 10
-5.769225801509082
 20
11.94213066650231
 30
0.0
 10
-5.769225801509082
 20
11.94213066650231
 30
0.0
 10
-5.769225801509082
 20
11.94213066650231
 30
0.0
 10
-5.572958711714398
 20
11.85483194690608
 30
0.0
 10
-5.572958711714398
 20
11.85483194690608
 30
0.0
 10
-5.572958711714398
 20
11.85483194690608
 30
0.0
 10
-5.764333765920028
 20
11.75723239180896
 30
0.0
 10
-5.764333765920028
 20
11.75723239180896
 30
0.0
 10
-5.764333765920028
 20
11.75723239180896
 30
0.0
 10
-5.786726886574151
 20
11.54358479529119
 30
0.0
 10
-5.786726886574151
 20
11.54358479529119
 30
0.0
 10
-5.786726886574151
 20
11.54358479529119
 30
0.0
 10
-5.938655597473669
 20
11.69546182975843
 30
0.0
 10
-5.938655597473669
 20
11.69546182975843
 30
0.0
 10
-5.938655597473669
 20
11.69546182975843
 30
0.0
 10
-6.073582762153479
 20
11.66671250793402
 30
0.0
 10
-6.073582762153479
 20
11.66671250793402
 30
0.0
 10
-6.073582762153479
 20
11.66671250793402
 30
0.0
 10
-6.090429279076351
 20
11.58544270543697
 30
0.0
 10
-6.090429279076351
 20
11.58544270543697
 30
0.0
 10
-6.090429279076351
 20
11.58544270543697
 30
0.0
 10
-6.064367131730435
 20
11.55230088686887
 30
0.0
 10
-6.064367131730435
 20
11.55230088686887
 30
0.0
 10
-6.064367131730435
 20
11.55230088686887
 30
0.0
 10
-5.914591605509199
 20
11.56597791594531
 30
0.0
 10
-5.914591605509199
 20
11.56597791594531
 30
0.0
 10
-5.914591605509199
 20
11.56597791594531
 30
0.0
 10
-5.998186847458786
 20
11.44098985174045
 30
0.0
 10
-5.998186847458786
 20
11.44098985174045
 30
0.0
 10
-5.998186847458786
 20
11.44098985174045
 30
0.0
 10
-5.938948430589916
 20
11.30277262087222
 30
0.0
 10
-5.938948430589916
 20
11.30277262087222
 30
0.0
 10
-5.938948430589916
 20
11.30277262087222
 30
0.0
 10
-6.083642440970408
 20
11.34371758071442
 30
0.0
 10
-6.083642440970408
 20
11.34371758071442
 30
0.0
 10
-6.083642440970408
 20
11.34371758071442
 30
0.0
 10
-6.153095565953045
 20
11.28289441992233
 30
0.0
 10
-6.153095565953045
 20
11.28289441992233
 30
0.0
 10
-6.153095565953045
 20
11.28289441992233
 30
0.0
 10
-6.197847356306441
 20
11.0667146782229
 30
0.0
 10
-6.197847356306441
 20
11.0667146782229
 30
0.0
 10
-6.197847356306441
 20
11.0667146782229
 30
0.0
 10
-6.168856877798063
 20
11.02985215653073
 30
0.0
 10
-6.168856877798063
 20
11.02985215653073
 30
0.0
 10
-6.168856877798063
 20
11.02985215653073
 30
0.0
 10
-6.019098577054253
 20
11.04352918560717
 30
0.0
 10
-6.019098577054253
 20
11.04352918560717
 30
0.0
 10
-6.019098577054253
 20
11.04352918560717
 30
0.0
 10
-6.10269381900384
 20
10.91854112140231
 30
0.0
 10
-6.10269381900384
 20
10.91854112140231
 30
0.0
 10
-6.10269381900384
 20
10.91854112140231
 30
0.0
 10
-6.043438176657543
 20
10.78034111601151
 30
0.0
 10
-6.043438176657543
 20
10.78034111601151
 30
0.0
 10
-6.043438176657543
 20
10.78034111601151
 30
0.0
 10
-6.188114961560609
 20
10.82125162489885
 30
0.0
 10
-6.188114961560609
 20
10.82125162489885
 30
0.0
 10
-6.188114961560609
 20
10.82125162489885
 30
0.0
 10
-6.26209838710635
 20
10.75646660429873
 30
0.0
 10
-6.26209838710635
 20
10.75646660429873
 30
0.0
  0
SPLINE
  5
180
330
175
100
AcDbEntity
  8
Default
 62
     1
420
 16711680
370
    18
100
AcDbSpline
210
0.0
220
0.0
230
1.0
 70
    11
 71
     3
 72
    29
 73
    25
 74
     0
 42
0.0000000001
 43
0.0000000001
 40
0.0
 40
0.0
 40
0.0
 40
0.0
 40
1.0
 40
1.0
 40
1.0
 40
2.0
 40
2.0
 40
2.0
 40
3.0
 40
3.0
 40
3.0
 40
4.0
 40
4.0
 40
4.0
 40
5.0
 40
5.0
 40
5.0
 40
6.0
 40
6.0
 40
6.0
 40
7.0
 40
7.0
 40
7.0
 40
8.0
 40
8.0
 40
8.0
 40
8.0
 10
2.199038899189823
 20
-0.4561306422470784
 30
0.0
 10
2.199038899189823
 20
-0.4561306422470784
 30
0.0
 10
1.816874457011059
 20
1.389200303472144
 30
0.0
 10
1.816874457011059
 20
1.389200303472144
 30
0.0
 10
1.80612575909708
 20
1.392989908505919
 30
0.0
 10
1.79592827646074
 20
1.398519286759745
 30
0.0
 10
1.787143282973353
 20
1.406804741401771
 30
0.0
 10
1.354956054348761
 20
1.814979654494172
 30
0.0
 10
0.6868142359394075
 20
1.833393689862832
 30
0.0
 10
0.2327851019383315
 20
1.44947224898659
 30
0.0
 10
0.2327851019383315
 20
1.44947224898659
 30
0.0
 10
0.1750453016055442
 20
1.400638020483174
 30
0.0
 10
0.1750453016055442
 20
1.400638020483174
 30
0.0
 10
0.1750453016055442
 20
1.400638020483174
 30
0.0
 10
0.1565106878949001
 20
1.418707546303309
 30
0.0
 10
0.1565106878949001
 20
1.418707546303309
 30
0.0
 10
-0.3429764810340475
 20
0.7424525280261923
 30
0.0
 10
-1.043088785546519
 20
0.2311142306279853
 30
0.0
 10
-1.846915689642438
 20
-0.0353466796786633
 30
0.0
 10
-1.665979274757116
 20
-0.1376660155905835
 30
0.0
 10
-1.498495957741695
 20
-0.2577964951612453
 30
0.0
 10
-1.343225504221485
 20
-0.4018014864446885
 30
0.0
 10
-0.2997749836490146
 20
0.4343059623480207
 30
0.0
 10
1.186559787029749
 20
0.4077442761567445
 30
0.0
 10
2.199038899189823
 20
-0.4561306422470784
 30
0.0
  0
SPLINE
  5
181
330
175
100
AcDbEntity
  8
Default
 62
     1
420
 16711680
370
    18
100
AcDbSpline
210
0.0
220
0.0
230
1.0
 70
    11
 71
     3
 72
    17
 73
    13
 74
     0
 42
0.0000000001
 43
0.0000000001
 40
0.0
 40
0.0
 40
0.0
 40
0.0
 40
1.0
 40
1.0
 40
1.0
 40
2.0
 40
2.0
 40
2.0
 40
3.0
 40
3.0
 40
3.0
 40
4.0
 40
4.0
 40
4.0
 40
4.0
 10
-2.803859862580285
 20
1.791449652329915
 30
0.0
 10
-2.803859862580285
 20
1.63679931599705
 30
0.0
 10
-2.570196261293215
 20
1.584778374169777
 30
0.0
 10
-2.463587781502159
 20
1.584778374169777
 30
0.0
 10
-2.356979301711102
 20
1.584778374169777
 30
0.0
 10
-2.123350151378884
 20
1.63679931599705
 30
0.0
 10
-2.123350151378884
 20
1.791449652329915
 30
0.0
 10
-2.123350151378884
 20
1.946048312230502
 30
0.0
 10
-2.356979301711102
 20
1.998069254057774
 30
0.0
 10
-2.463587781502159
 20
1.998069254057774
 30
0.0
 10
-2.570196261293215
 20
1.998069254057774
 30
0.0
 10
-2.803859862580285
 20
1.946048312230502
 30
0.0
 10
-2.803859862580285
 20
1.791449652329915
 30
0.0
  0
SPLINE
  5
182
330
175
100
AcDbEntity
  8
Default
 62
     1
420
 16711680
370
    18
100
AcDbSpline
210
0.0
220
0.0
230
1.0
 70
    11
 71
     3
 72
    29
 73
    25
 74
     0
 42
0.0000000001
 43
0.0000000001
 40
0.0
 40
0.0
 40
0.0
 40
0.0
 40
1.0
 40
1.0
 40
1.0
 40
2.0
 40
2.0
 40
2.0
 40
3.0
 40
3.0
 40
3.0
 40
4.0
 40
4.0
 40
4.0
 40
5.0
 40
5.0
 40
5.0
 40
6.0
 40
6.0
 40
6.0
 40
7.0
 40
7.0
 40
7.0
 40
8.0
 40
8.0
 40
8.0
 40
8.0
 10
-3.123874782205142
 20
0.0494198947359089
 30
0.0
 10
-1.750659721784557
 20
0.0493509928262039
 30
0.0
 10
-0.5201749673178729
 20
0.7929748533173813
 30
0.0
 10
0.1444528536965257
 20
1.928908962191384
 30
0.0
 10
-0.5293216958312112
 20
1.810380452021363
 30
0.0
 10
-1.183441975615598
 20
1.734416096571604
 30
0.0
 10
-1.842764349582712
 20
1.696709526485545
 30
0.0
 10
-1.899608425089334
 20
1.434279377896638
 30
0.0
 10
-2.188979220372894
 20
1.293461099937051
 30
0.0
 10
-2.463587781502159
 20
1.293461099937051
 30
0.0
 10
-2.729669731305429
 20
1.293461099937051
 30
0.0
 10
-3.01008327832734
 20
1.42540825702212
 30
0.0
 10
-3.078950737077484
 20
1.672318250449976
 30
0.0
 10
-4.238948837915957
 20
1.691335177528555
 30
0.0
 10
-5.358122557254219
 20
1.825952283614692
 30
0.0
 10
-6.485857338873327
 20
2.081630045052509
 30
0.0
 10
-6.420142142492186
 20
1.956865912054186
 30
0.0
 10
-6.347967392076202
 20
1.834599473282669
 30
0.0
 10
-6.267748343702159
 20
1.716139865022354
 30
0.0
 10
-5.700082735120118
 20
0.8775174965254122
 30
0.0
 10
-4.839807941498381
 20
0.3101963974918953
 30
0.0
 10
-3.845432806113294
 20
0.1185974120797256
 30
0.0
 10
-3.607187227830842
 20
0.0727087402161978
 30
0.0
 10
-3.364445799940138
 20
0.0494198947359089
 30
0.0
 10
-3.123874782205142
 20
0.0494198947359089
 30
0.0
  0
ENDBLK
  5
178
330
175
100
AcDbEntity
  8
0
100
AcDbBlockEnd
  0
ENDSEC
  0
SECTION
  2
ENTITIES
  0
POLYLINE
  5
3C
330
1F
100
AcDbEntity
  8
Default
 62
     1
420
 16711680
370
    18
100
AcDb2dPolyline
 66
     1
 10
0.0
 20
0.0
 30
0.0
  0
VERTEX
  5
3D
330
3C
100
AcDbEntity
  8
Default
 62
     1
420
 16711680
370
    18
100
AcDbVertex
100
AcDb2dVertex
 10
0.8104931638598767
 20
-3.921035426537102
 30
0.0
  0
VERTEX
  5
3E
330
3C
100
AcDbEntity
  8
Default
 62
     1
420
 16711680
370
    18
100
AcDbVertex
100
AcDb2dVertex
 10
1.031633843058064
 20
-3.921035426537102
 30
0.0
  0
VERTEX
  5
3F
330
3C
100
AcDbEntity
  8
Default
 62
     1
420
 16711680
370
    18
100
AcDbVertex
100
AcDb2dVertex
 10
0.9277297632229285
 20
-3.861125216048607
 30
0.0
  0
VERTEX
  5
40
330
3C
100
AcDbEntity
  8
Default
 62
     1
420
 16711680
370
    18
100
AcDbVertex
100
AcDb2dVertex
 10
0.8104931638598767
 20
-3.921035426537102
 30
0.0
  0
SEQEND
  5
41
330
3C
100
AcDbEntity
  8
Default
370
    18
  0
POLYLINE
  5
42
330
1F
100
AcDbEntity
  8
Default
 62
     1
420
 16711680
370
    18
100
AcDb2dPolyline
 66
     1
 10
0.0
 20
0.0
 30
0.0
  0
VERTEX
  5
43
330
42
100
AcDbEntity
  8
Default
 62
     1
420
 16711680
370
    18
100
AcDbVertex
100
AcDb2dVertex
 10
1.235101182416919
 20
-3.638089734333533
 30
0.0
  0
VERTEX
  5
44
330
42
100
AcDbEntity
  8
Default
 62
     1
420
 16711680
370
    18
100
AcDbVertex
100
AcDb2dVertex
 10
1.181598849530989
 20
-3.68632107112703
 30
0.0
  0
VERTEX
  5
45
330
42
100
AcDbEntity
  8
Default
 62
     1
420
 16711680
370
    18
100
AcDbVertex
100
AcDb2dVertex
 10
1.187179904217094
 20
-3.721529946986284
 30
0.0
  0
VERTEX
  5
46
330
42
100
AcDbEntity
  8
Default
 62
     1
420
 16711680
370
    18
100
AcDbVertex
100
AcDb2dVertex
 10
1.235101182416919
 20
-3.638089734333533
 30
0.0
  0
SEQEND
  5
47
330
42
100
AcDbEntity
  8
Default
370
    18
  0
POLYLINE
  5
48
330
1F
100
AcDbEntity
  8
Default
 62
     1
420
 16711680
370
    18
100
AcDb2dPolyline
 66
     1
 10
0.0
 20
0.0
 30
0.0
  0
VERTEX
  5
49
330
48
100
AcDbEntity
  8
Default
 62
     1
420
 16711680
370
    18
100
AcDbVertex
100
AcDb2dVertex
 10
2.456904296260774
 20
-1.701084797751812
 30
0.0
  0
VERTEX
  5
4A
330
48
100
AcDbEntity
  8
Default
 62
     1
420
 16711680
370
    18
100
AcDbVertex
100
AcDb2dVertex
 10
2.372430554962448
 20
-1.743735079859205
 30
0.0
  0
VERTEX
  5
4B
330
48
100
AcDbEntity
  8
Default
 62
     1
420
 16711680
370
    18
100
AcDbVertex
100
AcDb2dVertex
 10
2.356204155226921
 20
-1.893217772964195
 30
0.0
  0
VERTEX
  5
4C
330
48
100
AcDbEntity
  8
Default
 62
     1
420
 16711680
370
    18
100
AcDbVertex
100
AcDb2dVertex
 10
2.250198567145783
 20
-1.786488714831155
 30
0.0
  0
VERTEX
  5
4D
330
48
100
AcDbEntity
  8
Default
 62
     1
420
 16711680
370
    18
100
AcDbVertex
100
AcDb2dVertex
 10
2.186912163081744
 20
-1.799717881494515
 30
0.0
  0
VERTEX
  5
4E
330
48
100
AcDbEntity
  8
Default
 62
     1
420
 16711680
370
    18
100
AcDbVertex
100
AcDb2dVertex
 10
2.145364311529631
 20
-1.911442328081167
 30
0.0
  0
VERTEX
  5
4F
330
48
100
AcDbEntity
  8
Default
 62
     1
420
 16711680
370
    18
100
AcDbVertex
100
AcDb2dVertex
 10
2.273418510716367
 20
-2.083938259027626
 30
0.0
  0
VERTEX
  5
50
330
48
100
AcDbEntity
  8
Default
 62
     1
420
 16711680
370
    18
100
AcDbVertex
100
AcDb2dVertex
 10
2.058789061985303
 20
-2.074912108856272
 30
0.0
  0
VERTEX
  5
51
330
48
100
AcDbEntity
  8
Default
 62
     1
420
 16711680
370
    18
100
AcDbVertex
100
AcDb2dVertex
 10
2.005286729099373
 20
-2.150256347118686
 30
0.0
  0
VERTEX
  5
52
330
48
100
AcDbEntity
  8
Default
 62
     1
420
 16711680
370
    18
100
AcDbVertex
100
AcDb2dVertex
 10
2.102300617964008
 20
-2.367607421283098
 30
0.0
  0
VERTEX
  5
53
330
48
100
AcDbEntity
  8
Default
 62
     1
420
 16711680
370
    18
100
AcDbVertex
100
AcDb2dVertex
 10
2.456008571434609
 20
-2.423245713369883
 30
0.0
  0
VERTEX
  5
54
330
48
100
AcDbEntity
  8
Default
 62
     1
420
 16711680
370
    18
100
AcDbVertex
100
AcDb2dVertex
 10
2.190081650928174
 20
-2.663058810098124
 30
0.0
  0
VERTEX
  5
55
330
48
100
AcDbEntity
  8
Default
 62
     1
420
 16711680
370
    18
100
AcDbVertex
100
AcDb2dVertex
 10
2.246408962112009
 20
-3.016663410704167
 30
0.0
  0
VERTEX
  5
56
330
48
100
AcDbEntity
  8
Default
 62
     1
420
 16711680
370
    18
100
AcDbVertex
100
AcDb2dVertex
 10
1.936247015574966
 20
-2.837897405974553
 30
0.0
  0
VERTEX
  5
57
330
48
100
AcDbEntity
  8
Default
 62
     1
420
 16711680
370
    18
100
AcDbVertex
100
AcDb2dVertex
 10
1.918298068096814
 20
-2.84709581092017
 30
0.0
  0
VERTEX
  5
58
330
48
100
AcDbEntity
  8
Default
 62
     1
420
 16711680
370
    18
100
AcDbVertex
100
AcDb2dVertex
 10
1.960328233016862
 20
-3.236288247888844
 30
0.0
  0
VERTEX
  5
59
330
48
100
AcDbEntity
  8
Default
 62
     1
420
 16711680
370
    18
100
AcDbVertex
100
AcDb2dVertex
 10
2.359683701667024
 20
-3.438343098098747
 30
0.0
  0
VERTEX
  5
5A
330
48
100
AcDbEntity
  8
Default
 62
     1
420
 16711680
370
    18
100
AcDbVertex
100
AcDb2dVertex
 10
1.95133653380036
 20
-3.621518825049481
 30
0.0
  0
VERTEX
  5
5B
330
48
100
AcDbEntity
  8
Default
 62
     1
420
 16711680
370
    18
100
AcDbVertex
100
AcDb2dVertex
 10
1.904793293794635
 20
-3.921035426537102
 30
0.0
  0
VERTEX
  5
5C
330
48
100
AcDbEntity
  8
Default
 62
     1
420
 16711680
370
    18
100
AcDbVertex
100
AcDb2dVertex
 10
2.916652288767365
 20
-3.921035426537102
 30
0.0
  0
VERTEX
  5
5D
330
48
100
AcDbEntity
  8
Default
 62
     1
420
 16711680
370
    18
100
AcDbVertex
100
AcDb2dVertex
 10
2.418698187329353
 20
-1.516841091200651
 30
0.0
  0
VERTEX
  5
5E
330
48
100
AcDbEntity
  8
Default
 62
     1
420
 16711680
370
    18
100
AcDbVertex
100
AcDb2dVertex
 10
2.361923013732436
 20
-1.565416937542673
 30
0.0
  0
VERTEX
  5
5F
330
48
100
AcDbEntity
  8
Default
 62
     1
420
 16711680
370
    18
100
AcDbVertex
100
AcDb2dVertex
 10
2.369502223799985
 20
-1.614337293433221
 30
0.0
  0
VERTEX
  5
60
330
48
100
AcDbEntity
  8
Default
 62
     1
420
 16711680
370
    18
100
AcDbVertex
100
AcDb2dVertex
 10
2.446017794527384
 20
-1.648719346376015
 30
0.0
  0
SEQEND
  5
61
330
48
100
AcDbEntity
  8
Default
370
    18
  0
POLYLINE
  5
62
330
1F
100
AcDbEntity
  8
Default
 62
     1
420
 16711680
370
    18
100
AcDb2dPolyline
 66
     1
 10
0.0
 20
0.0
 30
0.0
  0
VERTEX
  5
63
330
62
100
AcDbEntity
  8
Default
 62
     1
420
 16711680
370
    18
100
AcDbVertex
100
AcDb2dVertex
 10
1.004314235860033
 20
-3.190192870296201
 30
0.0
  0
VERTEX
  5
64
330
62
100
AcDbEntity
  8
Default
 62
     1
420
 16711680
370
    18
100
AcDbVertex
100
AcDb2dVertex
 10
1.093817816566823
 20
-3.3908007804023
 30
0.0
  0
VERTEX
  5
65
330
62
100
AcDbEntity
  8
Default
 62
     1
420
 16711680
370
    18
100
AcDbVertex
100
AcDb2dVertex
 10
1.353474663290103
 20
-3.431694063812215
 30
0.0
  0
VERTEX
  5
66
330
62
100
AcDbEntity
  8
Default
 62
     1
420
 16711680
370
    18
100
AcDbVertex
100
AcDb2dVertex
 10
1.362983126829393
 20
-3.415088703573311
 30
0.0
  0
VERTEX
  5
67
330
62
100
AcDbEntity
  8
Default
 62
     1
420
 16711680
370
    18
100
AcDbVertex
100
AcDb2dVertex
 10
1.211846787891483
 20
-3.12053303958445
 30
0.0
  0
VERTEX
  5
68
330
62
100
AcDbEntity
  8
Default
 62
     1
420
 16711680
370
    18
100
AcDbVertex
100
AcDb2dVertex
 10
1.181323241892169
 20
-3.136001518313221
 30
0.0
  0
VERTEX
  5
69
330
62
100
AcDbEntity
  8
Default
 62
     1
420
 16711680
370
    18
100
AcDbVertex
100
AcDb2dVertex
 10
1.165096842156642
 20
-3.28544976046336
 30
0.0
  0
VERTEX
  5
6A
330
62
100
AcDbEntity
  8
Default
 62
     1
420
 16711680
370
    18
100
AcDbVertex
100
AcDb2dVertex
 10
1.059125705030357
 20
-3.178755153285172
 30
0.0
  0
VERTEX
  5
6B
330
62
100
AcDbEntity
  8
Default
 62
     1
420
 16711680
370
    18
100
AcDbVertex
100
AcDb2dVertex
 10
1.004314235860033
 20
-3.190192870296201
 30
0.0
  0
SEQEND
  5
6C
330
62
100
AcDbEntity
  8
Default
370
    18
  0
POLYLINE
  5
6D
330
1F
100
AcDbEntity
  8
Default
 62
     1
420
 16711680
370
    18
100
AcDb2dPolyline
 66
     1
 10
0.0
 20
0.0
 30
0.0
  0
VERTEX
  5
6E
330
6D
100
AcDbEntity
  8
Default
 62
     1
420
 16711680
370
    18
100
AcDbVertex
100
AcDb2dVertex
 10
1.219047037455655
 20
-3.921035426537102
 30
0.0
  0
VERTEX
  5
6F
330
6D
100
AcDbEntity
  8
Default
 62
     1
420
 16711680
370
    18
100
AcDbVertex
100
AcDb2dVertex
 10
1.753277994353347
 20
-3.921035426537102
 30
0.0
  0
VERTEX
  5
70
330
6D
100
AcDbEntity
  8
Default
 62
     1
420
 16711680
370
    18
100
AcDbVertex
100
AcDb2dVertex
 10
1.582160101600988
 20
-3.732037488216296
 30
0.0
  0
VERTEX
  5
71
330
6D
100
AcDbEntity
  8
Default
 62
     1
420
 16711680
370
    18
100
AcDbVertex
100
AcDb2dVertex
 10
1.198755425047533
 20
-3.793911403131383
 30
0.0
  0
VERTEX
  5
72
330
6D
100
AcDbEntity
  8
Default
 62
     1
420
 16711680
370
    18
100
AcDbVertex
100
AcDb2dVertex
 10
1.219047037455655
 20
-3.921035426537102
 30
0.0
  0
SEQEND
  5
73
330
6D
100
AcDbEntity
  8
Default
370
    18
  0
POLYLINE
  5
74
330
1F
100
AcDbEntity
  8
Default
 62
     1
420
 16711680
370
    18
100
AcDb2dPolyline
 66
     1
 10
0.0
 20
0.0
 30
0.0
  0
VERTEX
  5
75
330
74
100
AcDbEntity
  8
Default
 62
     1
420
 16711680
370
    18
100
AcDbVertex
100
AcDb2dVertex
 10
1.793378905801655
 20
-2.910830077397292
 30
0.0
  0
VERTEX
  5
76
330
74
100
AcDbEntity
  8
Default
 62
     1
420
 16711680
370
    18
100
AcDbVertex
100
AcDb2dVertex
 10
1.617300075550536
 20
-3.000781520517166
 30
0.0
  0
VERTEX
  5
77
330
74
100
AcDbEntity
  8
Default
 62
     1
420
 16711680
370
    18
100
AcDbVertex
100
AcDb2dVertex
 10
1.68313585027366
 20
-2.689792751063663
 30
0.0
  0
VERTEX
  5
78
330
74
100
AcDbEntity
  8
Default
 62
     1
420
 16711680
370
    18
100
AcDbVertex
100
AcDb2dVertex
 10
1.571342501777303
 20
-2.74629231702176
 30
0.0
  0
VERTEX
  5
79
330
74
100
AcDbEntity
  8
Default
 62
     1
420
 16711680
370
    18
100
AcDbVertex
100
AcDb2dVertex
 10
1.555081651086924
 20
-2.895775010126751
 30
0.0
  0
VERTEX
  5
7A
330
74
100
AcDbEntity
  8
Default
 62
     1
420
 16711680
370
    18
100
AcDbVertex
100
AcDb2dVertex
 10
1.449110513960639
 20
-2.789045951993711
 30
0.0
  0
VERTEX
  5
7B
330
74
100
AcDbEntity
  8
Default
 62
     1
420
 16711680
370
    18
100
AcDbVertex
100
AcDb2dVertex
 10
1.410180934977316
 20
-2.7971763773389
 30
0.0
  0
VERTEX
  5
7C
330
74
100
AcDbEntity
  8
Default
 62
     1
420
 16711680
370
    18
100
AcDbVertex
100
AcDb2dVertex
 10
1.371733669361928
 20
-2.837415092606618
 30
0.0
  0
VERTEX
  5
7D
330
74
100
AcDbEntity
  8
Default
 62
     1
420
 16711680
370
    18
100
AcDbVertex
100
AcDb2dVertex
 10
1.406287977078984
 20
-2.983831650729736
 30
0.0
  0
VERTEX
  5
7E
330
74
100
AcDbEntity
  8
Default
 62
     1
420
 16711680
370
    18
100
AcDbVertex
100
AcDb2dVertex
 10
1.270792371644107
 20
-2.918547091284252
 30
0.0
  0
VERTEX
  5
7F
330
74
100
AcDbEntity
  8
Default
 62
     1
420
 16711680
370
    18
100
AcDbVertex
100
AcDb2dVertex
 10
1.173847384689177
 20
-2.977389322172319
 30
0.0
  0
VERTEX
  5
80
330
74
100
AcDbEntity
  8
Default
 62
     1
420
 16711680
370
    18
100
AcDbVertex
100
AcDb2dVertex
 10
1.178394910729707
 20
-3.00650037902268
 30
0.0
  0
VERTEX
  5
81
330
74
100
AcDbEntity
  8
Default
 62
     1
420
 16711680
370
    18
100
AcDbVertex
100
AcDb2dVertex
 10
1.238821885540989
 20
-3.033682182401301
 30
0.0
  0
VERTEX
  5
82
330
74
100
AcDbEntity
  8
Default
 62
     1
420
 16711680
370
    18
100
AcDbVertex
100
AcDb2dVertex
 10
1.596698404548742
 20
-3.10868191111519
 30
0.0
  0
VERTEX
  5
83
330
74
100
AcDbEntity
  8
Default
 62
     1
420
 16711680
370
    18
100
AcDbVertex
100
AcDb2dVertex
 10
1.793378905801655
 20
-2.910830077397292
 30
0.0
  0
SEQEND
  5
84
330
74
100
AcDbEntity
  8
Default
370
    18
  0
POLYLINE
  5
85
330
1F
100
AcDbEntity
  8
Default
 62
     1
420
 16711680
370
    18
100
AcDb2dPolyline
 66
     1
 10
0.0
 20
0.0
 30
0.0
  0
VERTEX
  5
86
330
85
100
AcDbEntity
  8
Default
 62
     1
420
 16711680
370
    18
100
AcDbVertex
100
AcDb2dVertex
 10
1.68726996485596
 20
-2.670293510617149
 30
0.0
  0
VERTEX
  5
87
330
85
100
AcDbEntity
  8
Default
 62
     1
420
 16711680
370
    18
100
AcDbVertex
100
AcDb2dVertex
 10
1.691472981347965
 20
-2.650484211576962
 30
0.0
  0
VERTEX
  5
88
330
85
100
AcDbEntity
  8
Default
 62
     1
420
 16711680
370
    18
100
AcDbVertex
100
AcDb2dVertex
 10
1.552049967059904
 20
-2.511405706837426
 30
0.0
  0
VERTEX
  5
89
330
85
100
AcDbEntity
  8
Default
 62
     1
420
 16711680
370
    18
100
AcDbVertex
100
AcDb2dVertex
 10
1.568414170614841
 20
-2.616860079640924
 30
0.0
  0
VERTEX
  5
8A
330
85
100
AcDbEntity
  8
Default
 62
     1
420
 16711680
370
    18
100
AcDbVertex
100
AcDb2dVertex
 10
1.68726996485596
 20
-2.670293510617149
 30
0.0
  0
SEQEND
  5
8B
330
85
100
AcDbEntity
  8
Default
370
    18
  0
POLYLINE
  5
8C
330
1F
100
AcDbEntity
  8
Default
 62
     1
420
 16711680
370
    18
100
AcDb2dPolyline
 66
     1
 10
0.0
 20
0.0
 30
0.0
  0
VERTEX
  5
8D
330
8C
100
AcDbEntity
  8
Default
 62
     1
420
 16711680
370
    18
100
AcDbVertex
100
AcDb2dVertex
 10
-8.310397133339066
 20
-2.941319172441753
 30
0.0
  0
VERTEX
  5
8E
330
8C
100
AcDbEntity
  8
Default
 62
     1
420
 16711680
370
    18
100
AcDbVertex
100
AcDb2dVertex
 10
-8.134318303087948
 20
-3.031201713651921
 30
0.0
  0
VERTEX
  5
8F
330
8C
100
AcDbEntity
  8
Default
 62
     1
420
 16711680
370
    18
100
AcDbVertex
100
AcDb2dVertex
 10
-8.208456757930524
 20
-2.680938855666571
 30
0.0
  0
VERTEX
  5
90
330
8C
100
AcDbEntity
  8
Default
 62
     1
420
 16711680
370
    18
100
AcDbVertex
100
AcDb2dVertex
 10
-8.030121390136566
 20
-2.502930771943712
 30
0.0
  0
VERTEX
  5
91
330
8C
100
AcDbEntity
  8
Default
 62
     1
420
 16711680
370
    18
100
AcDbVertex
100
AcDb2dVertex
 10
-8.043522811574189
 20
-2.589574923397745
 30
0.0
  0
VERTEX
  5
92
330
8C
100
AcDbEntity
  8
Default
 62
     1
420
 16711680
370
    18
100
AcDbVertex
100
AcDb2dVertex
 10
-8.180706513796837
 20
-2.651242132583717
 30
0.0
  0
VERTEX
  5
93
330
8C
100
AcDbEntity
  8
Default
 62
     1
420
 16711680
370
    18
100
AcDbVertex
100
AcDb2dVertex
 10
-8.046468368214077
 20
-2.719041611733434
 30
0.0
  0
VERTEX
  5
94
330
8C
100
AcDbEntity
  8
Default
 62
     1
420
 16711680
370
    18
100
AcDbVertex
100
AcDb2dVertex
 10
-8.030207517523698
 20
-2.868558755793277
 30
0.0
  0
VERTEX
  5
95
330
8C
100
AcDbEntity
  8
Default
 62
     1
420
 16711680
370
    18
100
AcDbVertex
100
AcDb2dVertex
 10
-7.924288056829691
 20
-2.761829697660237
 30
0.0
  0
VERTEX
  5
96
330
8C
100
AcDbEntity
  8
Default
 62
     1
420
 16711680
370
    18
100
AcDbVertex
100
AcDb2dVertex
 10
-7.818334145180833
 20
-2.783947210675541
 30
0.0
  0
VERTEX
  5
97
330
8C
100
AcDbEntity
  8
Default
 62
     1
420
 16711680
370
    18
100
AcDbVertex
100
AcDb2dVertex
 10
-7.888441838305667
 20
-2.815469834365577
 30
0.0
  0
VERTEX
  5
98
330
8C
100
AcDbEntity
  8
Default
 62
     1
420
 16711680
370
    18
100
AcDbVertex
100
AcDb2dVertex
 10
-7.754203692722907
 20
-2.883269313515294
 30
0.0
  0
VERTEX
  5
99
330
8C
100
AcDbEntity
  8
Default
 62
     1
420
 16711680
370
    18
100
AcDbVertex
100
AcDb2dVertex
 10
-7.73797729298738
 20
-3.032752006620284
 30
0.0
  0
VERTEX
  5
9A
330
8C
100
AcDbEntity
  8
Default
 62
     1
420
 16711680
370
    18
100
AcDbVertex
100
AcDb2dVertex
 10
-7.68681762503142
 20
-2.981178927206094
 30
0.0
  0
VERTEX
  5
9B
330
8C
100
AcDbEntity
  8
Default
 62
     1
420
 16711680
370
    18
100
AcDbVertex
100
AcDb2dVertex
 10
-7.695430363744545
 20
-3.036989474067141
 30
0.0
  0
VERTEX
  5
9C
330
8C
100
AcDbEntity
  8
Default
 62
     1
420
 16711680
370
    18
100
AcDbVertex
100
AcDb2dVertex
 10
-7.755874564033253
 20
-3.06413682649091
 30
0.0
  0
VERTEX
  5
9D
330
8C
100
AcDbEntity
  8
Default
 62
     1
420
 16711680
370
    18
100
AcDbVertex
100
AcDb2dVertex
 10
-8.11373385756358
 20
-3.139171006159652
 30
0.0
  0
VERTEX
  5
9E
330
8C
100
AcDbEntity
  8
Default
 62
     1
420
 16711680
370
    18
100
AcDbVertex
100
AcDb2dVertex
 10
-8.310397133339066
 20
-2.941319172441753
 30
0.0
  0
SEQEND
  5
9F
330
8C
100
AcDbEntity
  8
Default
370
    18
  0
POLYLINE
  5
A0
330
1F
100
AcDbEntity
  8
Default
 62
     1
420
 16711680
370
    18
100
AcDb2dPolyline
 66
     1
 10
0.0
 20
0.0
 30
0.0
  0
VERTEX
  5
A1
330
A0
100
AcDbEntity
  8
Default
 62
     1
420
 16711680
370
    18
100
AcDbVertex
100
AcDb2dVertex
 10
-8.522304956636784
 20
-2.180676540253442
 30
0.0
  0
VERTEX
  5
A2
330
A0
100
AcDbEntity
  8
Default
 62
     1
420
 16711680
370
    18
100
AcDbVertex
100
AcDb2dVertex
 10
-8.619284394546566
 20
-2.398062065372707
 30
0.0
  0
VERTEX
  5
A3
330
A0
100
AcDbEntity
  8
Default
 62
     1
420
 16711680
370
    18
100
AcDbVertex
100
AcDb2dVertex
 10
-8.973009573494593
 20
-2.453734808414344
 30
0.0
  0
VERTEX
  5
A4
330
A0
100
AcDbEntity
  8
Default
 62
     1
420
 16711680
370
    18
100
AcDbVertex
100
AcDb2dVertex
 10
-8.707117103943013
 20
-2.693547905142585
 30
0.0
  0
VERTEX
  5
A5
330
A0
100
AcDbEntity
  8
Default
 62
     1
420
 16711680
370
    18
100
AcDbVertex
100
AcDb2dVertex
 10
-8.763444415126846
 20
-3.047118054793776
 30
0.0
  0
VERTEX
  5
A6
330
A0
100
AcDbEntity
  8
Default
 62
     1
420
 16711680
370
    18
100
AcDbVertex
100
AcDb2dVertex
 10
-8.453213566680098
 20
-2.868420951973867
 30
0.0
  0
VERTEX
  5
A7
330
A0
100
AcDbEntity
  8
Default
 62
     1
420
 16711680
370
    18
100
AcDbVertex
100
AcDb2dVertex
 10
-8.435281844679373
 20
-2.877481553100074
 30
0.0
  0
VERTEX
  5
A8
330
A0
100
AcDbEntity
  8
Default
 62
     1
420
 16711680
370
    18
100
AcDbVertex
100
AcDb2dVertex
 10
-8.477312009599421
 20
-3.2667084410236
 30
0.0
  0
VERTEX
  5
A9
330
A0
100
AcDbEntity
  8
Default
 62
     1
420
 16711680
370
    18
100
AcDbVertex
100
AcDb2dVertex
 10
-8.876719154681862
 20
-3.468763291233504
 30
0.0
  0
VERTEX
  5
AA
330
A0
100
AcDbEntity
  8
Default
 62
     1
420
 16711680
370
    18
100
AcDbVertex
100
AcDb2dVertex
 10
-8.468337535860346
 20
-3.65197346913909
 30
0.0
  0
VERTEX
  5
AB
330
A0
100
AcDbEntity
  8
Default
 62
     1
420
 16711680
370
    18
100
AcDbVertex
100
AcDb2dVertex
 10
-8.426548527624265
 20
-3.921035426537102
 30
0.0
  0
VERTEX
  5
AC
330
A0
100
AcDbEntity
  8
Default
 62
     1
420
 16711680
370
    18
100
AcDbVertex
100
AcDb2dVertex
 10
-9.301912839471395
 20
-3.921035426537102
 30
0.0
  0
VERTEX
  5
AD
330
A0
100
AcDbEntity
  8
Default
 62
     1
420
 16711680
370
    18
100
AcDbVertex
100
AcDb2dVertex
 10
-8.833465980864549
 20
-1.659226887606027
 30
0.0
  0
VERTEX
  5
AE
330
A0
100
AcDbEntity
  8
Default
 62
     1
420
 16711680
370
    18
100
AcDbVertex
100
AcDb2dVertex
 10
-8.77481323022817
 20
-1.688854708779175
 30
0.0
  0
VERTEX
  5
AF
330
A0
100
AcDbEntity
  8
Default
 62
     1
420
 16711680
370
    18
100
AcDbVertex
100
AcDb2dVertex
 10
-8.758586830492645
 20
-1.838337401884166
 30
0.0
  0
VERTEX
  5
B0
330
A0
100
AcDbEntity
  8
Default
 62
     1
420
 16711680
370
    18
100
AcDbVertex
100
AcDb2dVertex
 10
-8.716608342004875
 20
-1.79606608028015
 30
0.0
  0
VERTEX
  5
B1
330
A0
100
AcDbEntity
  8
Default
 62
     1
420
 16711680
370
    18
100
AcDbVertex
100
AcDb2dVertex
 10
-8.662365313589616
 20
-1.941931423125628
 30
0.0
  0
VERTEX
  5
B2
330
A0
100
AcDbEntity
  8
Default
 62
     1
420
 16711680
370
    18
100
AcDbVertex
100
AcDb2dVertex
 10
-8.790471189208631
 20
-2.114392903117235
 30
0.0
  0
VERTEX
  5
B3
330
A0
100
AcDbEntity
  8
Default
 62
     1
420
 16711680
370
    18
100
AcDbVertex
100
AcDb2dVertex
 10
-8.575790064045288
 20
-2.10536675294588
 30
0.0
  0
VERTEX
  5
B4
330
A0
100
AcDbEntity
  8
Default
 62
     1
420
 16711680
370
    18
100
AcDbVertex
100
AcDb2dVertex
 10
-8.522304956636784
 20
-2.180676540253442
 30
0.0
  0
SEQEND
  5
B5
330
A0
100
AcDbEntity
  8
Default
370
    18
  0
POLYLINE
  5
B6
330
1F
100
AcDbEntity
  8
Default
 62
     1
420
 16711680
370
    18
100
AcDb2dPolyline
 66
     1
 10
0.0
 20
0.0
 30
0.0
  0
VERTEX
  5
B7
330
B6
100
AcDbEntity
  8
Default
 62
     1
420
 16711680
370
    18
100
AcDbVertex
100
AcDb2dVertex
 10
-7.718150768469767
 20
-3.921035426537102
 30
0.0
  0
VERTEX
  5
B8
330
B6
100
AcDbEntity
  8
Default
 62
     1
420
 16711680
370
    18
100
AcDbVertex
100
AcDb2dVertex
 10
-8.242769908963613
 20
-3.921035426537102
 30
0.0
  0
VERTEX
  5
B9
330
B6
100
AcDbEntity
  8
Default
 62
     1
420
 16711680
370
    18
100
AcDbVertex
100
AcDb2dVertex
 10
-8.099178329138399
 20
-3.762457681351052
 30
0.0
  0
VERTEX
  5
BA
330
B6
100
AcDbEntity
  8
Default
 62
     1
420
 16711680
370
    18
100
AcDbVertex
100
AcDb2dVertex
 10
-7.703078475721799
 20
-3.826398653557289
 30
0.0
  0
VERTEX
  5
BB
330
B6
100
AcDbEntity
  8
Default
 62
     1
420
 16711680
370
    18
100
AcDbVertex
100
AcDb2dVertex
 10
-7.718150768469767
 20
-3.921035426537102
 30
0.0
  0
SEQEND
  5
BC
330
B6
100
AcDbEntity
  8
Default
370
    18
  0
POLYLINE
  5
BD
330
1F
100
AcDbEntity
  8
Default
 62
     1
420
 16711680
370
    18
100
AcDb2dPolyline
 66
     1
 10
0.0
 20
0.0
 30
0.0
  0
VERTEX
  5
BE
330
BD
100
AcDbEntity
  8
Default
 62
     1
420
 16711680
370
    18
100
AcDbVertex
100
AcDb2dVertex
 10
-7.72888224090632
 20
-3.151022134628911
 30
0.0
  0
VERTEX
  5
BF
330
BD
100
AcDbEntity
  8
Default
 62
     1
420
 16711680
370
    18
100
AcDbVertex
100
AcDb2dVertex
 10
-7.698358694907007
 20
-3.166387260493125
 30
0.0
  0
VERTEX
  5
C0
330
BD
100
AcDbEntity
  8
Default
 62
     1
420
 16711680
370
    18
100
AcDbVertex
100
AcDb2dVertex
 10
-7.682097844216628
 20
-3.315904404552968
 30
0.0
  0
VERTEX
  5
C1
330
BD
100
AcDbEntity
  8
Default
 62
     1
420
 16711680
370
    18
100
AcDbVertex
100
AcDb2dVertex
 10
-7.576143932567769
 20
-3.209209797374781
 30
0.0
  0
VERTEX
  5
C2
330
BD
100
AcDbEntity
  8
Default
 62
     1
420
 16711680
370
    18
100
AcDbVertex
100
AcDb2dVertex
 10
-7.487863360758242
 20
-3.22767550917572
 30
0.0
  0
VERTEX
  5
C3
330
BD
100
AcDbEntity
  8
Default
 62
     1
420
 16711680
370
    18
100
AcDbVertex
100
AcDb2dVertex
 10
-7.610818818626808
 20
-3.503145344176297
 30
0.0
  0
VERTEX
  5
C4
330
BD
100
AcDbEntity
  8
Default
 62
     1
420
 16711680
370
    18
100
AcDbVertex
100
AcDb2dVertex
 10
-7.827411971784466
 20
-3.537217338525418
 30
0.0
  0
VERTEX
  5
C5
330
BD
100
AcDbEntity
  8
Default
 62
     1
420
 16711680
370
    18
100
AcDbVertex
100
AcDb2dVertex
 10
-7.880018579844231
 20
-3.445508896708067
 30
0.0
  0
VERTEX
  5
C6
330
BD
100
AcDbEntity
  8
Default
 62
     1
420
 16711680
370
    18
100
AcDbVertex
100
AcDb2dVertex
 10
-7.72888224090632
 20
-3.151022134628911
 30
0.0
  0
SEQEND
  5
C7
330
BD
100
AcDbEntity
  8
Default
370
    18
  0
POLYLINE
  5
C8
330
1F
100
AcDbEntity
  8
Default
 62
     1
420
 16711680
370
    18
100
AcDb2dPolyline
 66
     1
 10
0.0
 20
0.0
 30
0.0
  0
VERTEX
  5
C9
330
C8
100
AcDbEntity
  8
Default
 62
     1
420
 16711680
370
    18
100
AcDbVertex
100
AcDb2dVertex
 10
-7.171414114960618
 20
-3.921035426537102
 30
0.0
  0
VERTEX
  5
CA
330
C8
100
AcDbEntity
  8
Default
 62
     1
420
 16711680
370
    18
100
AcDbVertex
100
AcDb2dVertex
 10
-7.172637123857882
 20
-3.921035426537102
 30
0.0
  0
VERTEX
  5
CB
330
C8
100
AcDbEntity
  8
Default
 62
     1
420
 16711680
370
    18
100
AcDbVertex
100
AcDb2dVertex
 10
-7.169846596514829
 20
-3.928545734694947
 30
0.0
  0
VERTEX
  5
CC
330
C8
100
AcDbEntity
  8
Default
 62
     1
420
 16711680
370
    18
100
AcDbVertex
100
AcDb2dVertex
 10
-7.171414114960618
 20
-3.921035426537102
 30
0.0
  0
SEQEND
  5
CD
330
C8
100
AcDbEntity
  8
Default
370
    18
  0
POLYLINE
  5
CE
330
1F
100
AcDbEntity
  8
Default
 62
     1
420
 16711680
370
    18
100
AcDb2dPolyline
 66
     1
 10
0.0
 20
0.0
 30
0.0
  0
VERTEX
  5
CF
330
CE
100
AcDbEntity
  8
Default
 62
     1
420
 16711680
370
    18
100
AcDbVertex
100
AcDb2dVertex
 10
-5.672694226012381
 20
12.72635497728716
 30
0.0
  0
VERTEX
  5
D0
330
CE
100
AcDbEntity
  8
Default
 62
     1
420
 16711680
370
    18
100
AcDbVertex
100
AcDb2dVertex
 10
-5.34365315621617
 20
12.8492243077686
 30
0.0
  0
VERTEX
  5
D1
330
CE
100
AcDbEntity
  8
Default
 62
     1
420
 16711680
370
    18
100
AcDbVertex
100
AcDb2dVertex
 10
-5.457444660093972
 20
12.50972737317465
 30
0.0
  0
VERTEX
  5
D2
330
CE
100
AcDbEntity
  8
Default
 62
     1
420
 16711680
370
    18
100
AcDbVertex
100
AcDb2dVertex
 10
-5.444680581321121
 20
12.49367322821339
 30
0.0
  0
VERTEX
  5
D3
330
CE
100
AcDbEntity
  8
Default
 62
     1
420
 16711680
370
    18
100
AcDbVertex
100
AcDb2dVertex
 10
-5.330027803572007
 20
12.53589287338512
 30
0.0
  0
VERTEX
  5
D4
330
CE
100
AcDbEntity
  8
Default
 62
     1
420
 16711680
370
    18
100
AcDbVertex
100
AcDb2dVertex
 10
-5.296765406661919
 20
12.68253336271478
 30
0.0
  0
VERTEX
  5
D5
330
CE
100
AcDbEntity
  8
Default
 62
     1
420
 16711680
370
    18
100
AcDbVertex
100
AcDb2dVertex
 10
-5.2037650540376
 20
12.56440103852557
 30
0.0
  0
VERTEX
  5
D6
330
CE
100
AcDbEntity
  8
Default
 62
     1
420
 16711680
370
    18
100
AcDbVertex
100
AcDb2dVertex
 10
-5.102444795816402
 20
12.57365111990346
 30
0.0
  0
VERTEX
  5
D7
330
CE
100
AcDbEntity
  8
Default
 62
     1
420
 16711680
370
    18
100
AcDbVertex
100
AcDb2dVertex
 10
-5.182388236551625
 20
12.62124511403219
 30
0.0
  0
VERTEX
  5
D8
330
CE
100
AcDbEntity
  8
Default
 62
     1
420
 16711680
370
    18
100
AcDbVertex
100
AcDb2dVertex
 10
-5.041259899998365
 20
12.67319715394976
 30
0.0
  0
VERTEX
  5
D9
330
CE
100
AcDbEntity
  8
Default
 62
     1
420
 16711680
370
    18
100
AcDbVertex
100
AcDb2dVertex
 10
-5.007963052133426
 20
12.81987209423427
 30
0.0
  0
VERTEX
  5
DA
330
CE
100
AcDbEntity
  8
Default
 62
     1
420
 16711680
370
    18
100
AcDbVertex
100
AcDb2dVertex
 10
-4.963039007005768
 20
12.76278686204368
 30
0.0
  0
VERTEX
  5
DB
330
CE
100
AcDbEntity
  8
Default
 62
     1
420
 16711680
370
    18
100
AcDbVertex
100
AcDb2dVertex
 10
-4.965209417161475
 20
12.81918307513722
 30
0.0
  0
VERTEX
  5
DC
330
CE
100
AcDbEntity
  8
Default
 62
     1
420
 16711680
370
    18
100
AcDbVertex
100
AcDb2dVertex
 10
-5.022156845532655
 20
12.85306558923465
 30
0.0
  0
VERTEX
  5
DD
330
CE
100
AcDbEntity
  8
Default
 62
     1
420
 16711680
370
    18
100
AcDbVertex
100
AcDb2dVertex
 10
-5.369043509942461
 20
12.96861409180993
 30
0.0
  0
VERTEX
  5
DE
330
CE
100
AcDbEntity
  8
Default
 62
     1
420
 16711680
370
    18
100
AcDbVertex
100
AcDb2dVertex
 10
-5.672694226012381
 20
12.72635497728716
 30
0.0
  0
SEQEND
  5
DF
330
CE
100
AcDbEntity
  8
Default
370
    18
  0
POLYLINE
  5
E0
330
1F
100
AcDbEntity
  8
Default
 62
     1
420
 16711680
370
    18
100
AcDb2dPolyline
 66
     1
 10
0.0
 20
0.0
 30
0.0
  0
VERTEX
  5
E1
330
E0
100
AcDbEntity
  8
Default
 62
     1
420
 16711680
370
    18
100
AcDbVertex
100
AcDb2dVertex
 10
-2.085919188931645
 20
13.8661820440595
 30
0.0
  0
VERTEX
  5
E2
330
E0
100
AcDbEntity
  8
Default
 62
     1
420
 16711680
370
    18
100
AcDbVertex
100
AcDb2dVertex
 10
-2.086849364712663
 20
13.8661820440595
 30
0.0
  0
VERTEX
  5
E3
330
E0
100
AcDbEntity
  8
Default
 62
     1
420
 16711680
370
    18
100
AcDbVertex
100
AcDb2dVertex
 10
-2.08695271757722
 20
13.86659545551773
 30
0.0
  0
VERTEX
  5
E4
330
E0
100
AcDbEntity
  8
Default
 62
     1
420
 16711680
370
    18
100
AcDbVertex
100
AcDb2dVertex
 10
-2.085919188931645
 20
13.8661820440595
 30
0.0
  0
SEQEND
  5
E5
330
E0
100
AcDbEntity
  8
Default
370
    18
  0
POLYLINE
  5
E6
330
1F
100
AcDbEntity
  8
Default
 62
     1
420
 16711680
370
    18
100
AcDb2dPolyline
 66
     1
 10
0.0
 20
0.0
 30
0.0
  0
VERTEX
  5
E7
330
E6
100
AcDbEntity
  8
Default
 62
     1
420
 16711680
370
    18
100
AcDbVertex
100
AcDb2dVertex
 10
-5.483489581962461
 20
13.8661820440595
 30
0.0
  0
VERTEX
  5
E8
330
E6
100
AcDbEntity
  8
Default
 62
     1
420
 16711680
370
    18
100
AcDbVertex
100
AcDb2dVertex
 10
-5.283191730450035
 20
13.58616468301839
 30
0.0
  0
VERTEX
  5
E9
330
E6
100
AcDbEntity
  8
Default
 62
     1
420
 16711680
370
    18
100
AcDbVertex
100
AcDb2dVertex
 10
-4.882354870741216
 20
13.60426865979338
 30
0.0
  0
VERTEX
  5
EA
330
E6
100
AcDbEntity
  8
Default
 62
     1
420
 16711680
370
    18
100
AcDbVertex
100
AcDb2dVertex
 10
-4.893654783932836
 20
13.8661820440595
 30
0.0
  0
VERTEX
  5
EB
330
E6
100
AcDbEntity
  8
Default
 62
     1
420
 16711680
370
    18
100
AcDbVertex
100
AcDb2dVertex
 10
-5.618072237093745
 20
13.8661820440595
 30
0.0
  0
VERTEX
  5
EC
330
E6
100
AcDbEntity
  8
Default
 62
     1
420
 16711680
370
    18
100
AcDbVertex
100
AcDb2dVertex
 10
-5.691952309774928
 20
13.50937350465217
 30
0.0
  0
VERTEX
  5
ED
330
E6
100
AcDbEntity
  8
Default
 62
     1
420
 16711680
370
    18
100
AcDbVertex
100
AcDb2dVertex
 10
-5.662565645285747
 20
13.51869248793977
 30
0.0
  0
VERTEX
  5
EE
330
E6
100
AcDbEntity
  8
Default
 62
     1
420
 16711680
370
    18
100
AcDbVertex
100
AcDb2dVertex
 10
-5.566740314363523
 20
13.8661820440595
 30
0.0
  0
SEQEND
  5
EF
330
E6
100
AcDbEntity
  8
Default
370
    18
  0
POLYLINE
  5
F0
330
1F
100
AcDbEntity
  8
Default
 62
     1
420
 16711680
370
    18
100
AcDb2dPolyline
 66
     1
 10
0.0
 20
0.0
 30
0.0
  0
VERTEX
  5
F1
330
F0
100
AcDbEntity
  8
Default
 62
     1
420
 16711680
370
    18
100
AcDbVertex
100
AcDb2dVertex
 10
-4.985380451227613
 20
12.93628187068086
 30
0.0
  0
VERTEX
  5
F2
330
F0
100
AcDbEntity
  8
Default
 62
     1
420
 16711680
370
    18
100
AcDbVertex
100
AcDb2dVertex
 10
-4.953323837737363
 20
12.94809854819527
 30
0.0
  0
VERTEX
  5
F3
330
F0
100
AcDbEntity
  8
Default
 62
     1
420
 16711680
370
    18
100
AcDbVertex
100
AcDb2dVertex
 10
-4.920009764394997
 20
13.09473903752493
 30
0.0
  0
VERTEX
  5
F4
330
F0
100
AcDbEntity
  8
Default
 62
     1
420
 16711680
370
    18
100
AcDbVertex
100
AcDb2dVertex
 10
-4.826974960815825
 20
12.97660671333571
 30
0.0
  0
VERTEX
  5
F5
330
F0
100
AcDbEntity
  8
Default
 62
     1
420
 16711680
370
    18
100
AcDbVertex
100
AcDb2dVertex
 10
-4.737178546992788
 20
12.98478881511318
 30
0.0
  0
VERTEX
  5
F6
330
F0
100
AcDbEntity
  8
Default
 62
     1
420
 16711680
370
    18
100
AcDbVertex
100
AcDb2dVertex
 10
-4.82773288182258
 20
13.2725576409961
 30
0.0
  0
VERTEX
  5
F7
330
F0
100
AcDbEntity
  8
Default
 62
     1
420
 16711680
370
    18
100
AcDbVertex
100
AcDb2dVertex
 10
-5.039003362455526
 20
13.33126206806475
 30
0.0
  0
VERTEX
  5
F8
330
F0
100
AcDbEntity
  8
Default
 62
     1
420
 16711680
370
    18
100
AcDbVertex
100
AcDb2dVertex
 10
-5.101790227674205
 20
13.24620266053394
 30
0.0
  0
VERTEX
  5
F9
330
F0
100
AcDbEntity
  8
Default
 62
     1
420
 16711680
370
    18
100
AcDbVertex
100
AcDb2dVertex
 10
-4.985380451227613
 20
12.93628187068086
 30
0.0
  0
SEQEND
  5
FA
330
F0
100
AcDbEntity
  8
Default
370
    18
  0
POLYLINE
  5
FB
330
1F
100
AcDbEntity
  8
Default
 62
     1
420
 16711680
370
    18
100
AcDb2dPolyline
 66
     1
 10
0.0
 20
0.0
 30
0.0
  0
VERTEX
  5
FC
330
FB
100
AcDbEntity
  8
Default
 62
     1
420
 16711680
370
    18
100
AcDbVertex
100
AcDb2dVertex
 10
-5.762628443654829
 20
13.16803344397362
 30
0.0
  0
VERTEX
  5
FD
330
FB
100
AcDbEntity
  8
Default
 62
     1
420
 16711680
370
    18
100
AcDbVertex
100
AcDb2dVertex
 10
-5.831289196675858
 20
12.83671861115714
 30
0.0
  0
VERTEX
  5
FE
330
FB
100
AcDbEntity
  8
Default
 62
     1
420
 16711680
370
    18
100
AcDbVertex
100
AcDb2dVertex
 10
-5.718462319533925
 20
12.75312336920755
 30
0.0
  0
VERTEX
  5
FF
330
FB
100
AcDbEntity
  8
Default
 62
     1
420
 16711680
370
    18
100
AcDbVertex
100
AcDb2dVertex
 10
-5.715654566713447
 20
13.13704481008379
 30
0.0
  0
VERTEX
  5
100
330
FB
100
AcDbEntity
  8
Default
 62
     1
420
 16711680
370
    18
100
AcDbVertex
100
AcDb2dVertex
 10
-5.762628443654829
 20
13.16803344397362
 30
0.0
  0
SEQEND
  5
101
330
FB
100
AcDbEntity
  8
Default
370
    18
  0
POLYLINE
  5
102
330
1F
100
AcDbEntity
  8
Default
 62
     1
420
 16711680
370
    18
100
AcDb2dPolyline
 66
     1
 10
0.0
 20
0.0
 30
0.0
  0
VERTEX
  5
103
330
102
100
AcDbEntity
  8
Default
 62
     1
420
 16711680
370
    18
100
AcDbVertex
100
AcDb2dVertex
 10
-5.944753416482561
 20
12.28879339970558
 30
0.0
  0
VERTEX
  5
104
330
102
100
AcDbEntity
  8
Default
 62
     1
420
 16711680
370
    18
100
AcDbVertex
100
AcDb2dVertex
 10
-6.003819578577169
 20
12.0036772973463
 30
0.0
  0
VERTEX
  5
105
330
102
100
AcDbEntity
  8
Default
 62
     1
420
 16711680
370
    18
100
AcDbVertex
100
AcDb2dVertex
 10
-5.946579317089744
 20
11.99463392169752
 30
0.0
  0
VERTEX
  5
106
330
102
100
AcDbEntity
  8
Default
 62
     1
420
 16711680
370
    18
100
AcDbVertex
100
AcDb2dVertex
 10
-5.845017902184578
 20
12.10749524979431
 30
0.0
  0
VERTEX
  5
107
330
102
100
AcDbEntity
  8
Default
 62
     1
420
 16711680
370
    18
100
AcDbVertex
100
AcDb2dVertex
 10
-5.897969019792868
 20
12.27578816424876
 30
0.0
  0
VERTEX
  5
108
330
102
100
AcDbEntity
  8
Default
 62
     1
420
 16711680
370
    18
100
AcDbVertex
100
AcDb2dVertex
 10
-5.944753416482561
 20
12.28879339970558
 30
0.0
  0
SEQEND
  5
109
330
102
100
AcDbEntity
  8
Default
370
    18
  0
POLYLINE
  5
10A
330
1F
100
AcDbEntity
  8
Default
 62
     1
420
 16711680
370
    18
100
AcDb2dPolyline
 66
     1
 10
0.0
 20
0.0
 30
0.0
  0
VERTEX
  5
10B
330
10A
100
AcDbEntity
  8
Default
 62
     1
420
 16711680
370
    18
100
AcDbVertex
100
AcDb2dVertex
 10
-5.406181639273454
 20
12.44523518569077
 30
0.0
  0
VERTEX
  5
10C
330
10A
100
AcDbEntity
  8
Default
 62
     1
420
 16711680
370
    18
100
AcDbVertex
100
AcDb2dVertex
 10
-5.340242511685772
 20
12.36220838449625
 30
0.0
  0
VERTEX
  5
10D
330
10A
100
AcDbEntity
  8
Default
 62
     1
420
 16711680
370
    18
100
AcDbVertex
100
AcDb2dVertex
 10
-5.341982284905823
 20
12.40696017484965
 30
0.0
  0
VERTEX
  5
10E
330
10A
100
AcDbEntity
  8
Default
 62
     1
420
 16711680
370
    18
100
AcDbVertex
100
AcDb2dVertex
 10
-5.406181639273454
 20
12.44523518569077
 30
0.0
  0
SEQEND
  5
10F
330
10A
100
AcDbEntity
  8
Default
370
    18
  0
POLYLINE
  5
110
330
1F
100
AcDbEntity
  8
Default
 62
     1
420
 16711680
370
    18
100
AcDb2dPolyline
 66
     1
 10
0.0
 20
0.0
 30
0.0
  0
VERTEX
  5
111
330
110
100
AcDbEntity
  8
Default
 62
     1
420
 16711680
370
    18
100
AcDbVertex
100
AcDb2dVertex
 10
-1.375006510072915
 20
12.95686631620523
 30
0.0
  0
VERTEX
  5
112
330
110
100
AcDbEntity
  8
Default
 62
     1
420
 16711680
370
    18
100
AcDbVertex
100
AcDb2dVertex
 10
-1.407080349040591
 20
12.96868299371963
 30
0.0
  0
VERTEX
  5
113
330
110
100
AcDbEntity
  8
Default
 62
     1
420
 16711680
370
    18
100
AcDbVertex
100
AcDb2dVertex
 10
-1.440377196905531
 20
13.11535793400415
 30
0.0
  0
VERTEX
  5
114
330
110
100
AcDbEntity
  8
Default
 62
     1
420
 16711680
370
    18
100
AcDbVertex
100
AcDb2dVertex
 10
-1.533412000484702
 20
12.99719115886008
 30
0.0
  0
VERTEX
  5
115
330
110
100
AcDbEntity
  8
Default
 62
     1
420
 16711680
370
    18
100
AcDbVertex
100
AcDb2dVertex
 10
-1.623191188830313
 20
13.00537326063754
 30
0.0
  0
VERTEX
  5
116
330
110
100
AcDbEntity
  8
Default
 62
     1
420
 16711680
370
    18
100
AcDbVertex
100
AcDb2dVertex
 10
-1.532619628523095
 20
13.29315931199789
 30
0.0
  0
VERTEX
  5
117
330
110
100
AcDbEntity
  8
Default
 62
     1
420
 16711680
370
    18
100
AcDbVertex
100
AcDb2dVertex
 10
-1.321366373367575
 20
13.35184651358912
 30
0.0
  0
VERTEX
  5
118
330
110
100
AcDbEntity
  8
Default
 62
     1
420
 16711680
370
    18
100
AcDbVertex
100
AcDb2dVertex
 10
-1.258596733626323
 20
13.2667871060583
 30
0.0
  0
VERTEX
  5
119
330
110
100
AcDbEntity
  8
Default
 62
     1
420
 16711680
370
    18
100
AcDbVertex
100
AcDb2dVertex
 10
-1.375006510072915
 20
12.95686631620523
 30
0.0
  0
SEQEND
  5
11A
330
110
100
AcDbEntity
  8
Default
370
    18
  0
POLYLINE
  5
11B
330
1F
100
AcDbEntity
  8
Default
 62
     1
420
 16711680
370
    18
100
AcDb2dPolyline
 66
     1
 10
0.0
 20
0.0
 30
0.0
  0
VERTEX
  5
11C
330
11B
100
AcDbEntity
  8
Default
 62
     1
420
 16711680
370
    18
100
AcDbVertex
100
AcDb2dVertex
 10
-3.173294676941051
 20
13.84947333095603
 30
0.0
  0
VERTEX
  5
11D
330
11B
100
AcDbEntity
  8
Default
 62
     1
420
 16711680
370
    18
100
AcDbVertex
100
AcDb2dVertex
 10
-3.229208576666656
 20
13.7659125399613
 30
0.0
  0
VERTEX
  5
11E
330
11B
100
AcDbEntity
  8
Default
 62
     1
420
 16711680
370
    18
100
AcDbVertex
100
AcDb2dVertex
 10
-3.184629041087523
 20
13.66190510726161
 30
0.0
  0
VERTEX
  5
11F
330
11B
100
AcDbEntity
  8
Default
 62
     1
420
 16711680
370
    18
100
AcDbVertex
100
AcDb2dVertex
 10
-3.131161159156445
 20
13.78649698548567
 30
0.0
  0
VERTEX
  5
120
330
11B
100
AcDbEntity
  8
Default
 62
     1
420
 16711680
370
    18
100
AcDbVertex
100
AcDb2dVertex
 10
-3.173294676941051
 20
13.84947333095603
 30
0.0
  0
SEQEND
  5
121
330
11B
100
AcDbEntity
  8
Default
370
    18
  0
POLYLINE
  5
122
330
1F
100
AcDbEntity
  8
Default
 62
     1
420
 16711680
370
    18
100
AcDb2dPolyline
 66
     1
 10
0.0
 20
0.0
 30
0.0
  0
VERTEX
  5
123
330
122
100
AcDbEntity
  8
Default
 62
     1
420
 16711680
370
    18
100
AcDbVertex
100
AcDb2dVertex
 10
-3.417672525187248
 20
13.8661820440595
 30
0.0
  0
VERTEX
  5
124
330
122
100
AcDbEntity
  8
Default
 62
     1
420
 16711680
370
    18
100
AcDbVertex
100
AcDb2dVertex
 10
-3.642309976302964
 20
13.8661820440595
 30
0.0
  0
VERTEX
  5
125
330
122
100
AcDbEntity
  8
Default
 62
     1
420
 16711680
370
    18
100
AcDbVertex
100
AcDb2dVertex
 10
-3.633680012112413
 20
13.84628661763218
 30
0.0
  0
VERTEX
  5
126
330
122
100
AcDbEntity
  8
Default
 62
     1
420
 16711680
370
    18
100
AcDbVertex
100
AcDb2dVertex
 10
-3.492534450081727
 20
13.82263603712594
 30
0.0
  0
VERTEX
  5
127
330
122
100
AcDbEntity
  8
Default
 62
     1
420
 16711680
370
    18
100
AcDbVertex
100
AcDb2dVertex
 10
-3.421668835950138
 20
13.84873263542671
 30
0.0
  0
VERTEX
  5
128
330
122
100
AcDbEntity
  8
Default
 62
     1
420
 16711680
370
    18
100
AcDbVertex
100
AcDb2dVertex
 10
-3.417672525187248
 20
13.8661820440595
 30
0.0
  0
SEQEND
  5
129
330
122
100
AcDbEntity
  8
Default
370
    18
  0
POLYLINE
  5
12A
330
1F
100
AcDbEntity
  8
Default
 62
     1
420
 16711680
370
    18
100
AcDb2dPolyline
 66
     1
 10
0.0
 20
0.0
 30
0.0
  0
VERTEX
  5
12B
330
12A
100
AcDbEntity
  8
Default
 62
     1
420
 16711680
370
    18
100
AcDbVertex
100
AcDb2dVertex
 10
-2.836691622554716
 20
13.79407619555322
 30
0.0
  0
VERTEX
  5
12C
330
12A
100
AcDbEntity
  8
Default
 62
     1
420
 16711680
370
    18
100
AcDbVertex
100
AcDb2dVertex
 10
-2.797641465229409
 20
13.8173650410335
 30
0.0
  0
VERTEX
  5
12D
330
12A
100
AcDbEntity
  8
Default
 62
     1
420
 16711680
370
    18
100
AcDbVertex
100
AcDb2dVertex
 10
-2.930208739501823
 20
13.8661820440595
 30
0.0
  0
VERTEX
  5
12E
330
12A
100
AcDbEntity
  8
Default
 62
     1
420
 16711680
370
    18
100
AcDbVertex
100
AcDb2dVertex
 10
-2.736749402527618
 20
13.8661820440595
 30
0.0
  0
VERTEX
  5
12F
330
12A
100
AcDbEntity
  8
Default
 62
     1
420
 16711680
370
    18
100
AcDbVertex
100
AcDb2dVertex
 10
-2.744276936162889
 20
13.8300257669418
 30
0.0
  0
VERTEX
  5
130
330
12A
100
AcDbEntity
  8
Default
 62
     1
420
 16711680
370
    18
100
AcDbVertex
100
AcDb2dVertex
 10
-2.836691622554716
 20
13.79407619555322
 30
0.0
  0
SEQEND
  5
131
330
12A
100
AcDbEntity
  8
Default
370
    18
  0
POLYLINE
  5
132
330
1F
100
AcDbEntity
  8
Default
 62
     1
420
 16711680
370
    18
100
AcDb2dPolyline
 66
     1
 10
0.0
 20
0.0
 30
0.0
  0
VERTEX
  5
133
330
132
100
AcDbEntity
  8
Default
 62
     1
420
 16711680
370
    18
100
AcDbVertex
100
AcDb2dVertex
 10
-1.467627902193857
 20
13.8661820440595
 30
0.0
  0
VERTEX
  5
134
330
132
100
AcDbEntity
  8
Default
 62
     1
420
 16711680
370
    18
100
AcDbVertex
100
AcDb2dVertex
 10
-0.8916251625375103
 20
13.8661820440595
 30
0.0
  0
VERTEX
  5
135
330
132
100
AcDbEntity
  8
Default
 62
     1
420
 16711680
370
    18
100
AcDbVertex
100
AcDb2dVertex
 10
-1.077246907282772
 20
13.60674912854276
 30
0.0
  0
VERTEX
  5
136
330
132
100
AcDbEntity
  8
Default
 62
     1
420
 16711680
370
    18
100
AcDbVertex
100
AcDb2dVertex
 10
-1.478049316036738
 20
13.62485310531774
 30
0.0
  0
VERTEX
  5
137
330
132
100
AcDbEntity
  8
Default
 62
     1
420
 16711680
370
    18
100
AcDbVertex
100
AcDb2dVertex
 10
-1.467627902193857
 20
13.8661820440595
 30
0.0
  0
SEQEND
  5
138
330
132
100
AcDbEntity
  8
Default
370
    18
  0
POLYLINE
  5
139
330
1F
100
AcDbEntity
  8
Default
 62
     1
420
 16711680
370
    18
100
AcDb2dPolyline
 66
     1
 10
0.0
 20
0.0
 30
0.0
  0
VERTEX
  5
13A
330
139
100
AcDbEntity
  8
Default
 62
     1
420
 16711680
370
    18
100
AcDbVertex
100
AcDb2dVertex
 10
-1.977174749939734
 20
13.8661820440595
 30
0.0
  0
VERTEX
  5
13B
330
139
100
AcDbEntity
  8
Default
 62
     1
420
 16711680
370
    18
100
AcDbVertex
100
AcDb2dVertex
 10
-1.583038600949726
 20
13.8661820440595
 30
0.0
  0
VERTEX
  5
13C
330
139
100
AcDbEntity
  8
Default
 62
     1
420
 16711680
370
    18
100
AcDbVertex
100
AcDb2dVertex
 10
-1.751555446610722
 20
13.74133178367404
 30
0.0
  0
VERTEX
  5
13D
330
139
100
AcDbEntity
  8
Default
 62
     1
420
 16711680
370
    18
100
AcDbVertex
100
AcDb2dVertex
 10
-1.996484510134559
 20
13.83278184333
 30
0.0
  0
VERTEX
  5
13E
330
139
100
AcDbEntity
  8
Default
 62
     1
420
 16711680
370
    18
100
AcDbVertex
100
AcDb2dVertex
 10
-1.977174749939734
 20
13.8661820440595
 30
0.0
  0
SEQEND
  5
13F
330
139
100
AcDbEntity
  8
Default
370
    18
  0
POLYLINE
  5
140
330
1F
100
AcDbEntity
  8
Default
 62
     1
420
 16711680
370
    18
100
AcDb2dPolyline
 66
     1
 10
0.0
 20
0.0
 30
0.0
  0
VERTEX
  5
141
330
140
100
AcDbEntity
  8
Default
 62
     1
420
 16711680
370
    18
100
AcDbVertex
100
AcDb2dVertex
 10
-0.312935248402669
 20
11.35405286717017
 30
0.0
  0
VERTEX
  5
142
330
140
100
AcDbEntity
  8
Default
 62
     1
420
 16711680
370
    18
100
AcDbVertex
100
AcDb2dVertex
 10
-0.2767445203301194
 20
11.36430202623878
 30
0.0
  0
VERTEX
  5
143
330
140
100
AcDbEntity
  8
Default
 62
     1
420
 16711680
370
    18
100
AcDbVertex
100
AcDb2dVertex
 10
-0.2429309081423923
 20
11.33467420506564
 30
0.0
  0
VERTEX
  5
144
330
140
100
AcDbEntity
  8
Default
 62
     1
420
 16711680
370
    18
100
AcDbVertex
100
AcDb2dVertex
 10
-0.2237072753346982
 20
11.24193223460271
 30
0.0
  0
VERTEX
  5
145
330
140
100
AcDbEntity
  8
Default
 62
     1
420
 16711680
370
    18
100
AcDbVertex
100
AcDb2dVertex
 10
-0.2933154296141711
 20
11.26756374501297
 30
0.0
  0
VERTEX
  5
146
330
140
100
AcDbEntity
  8
Default
 62
     1
420
 16711680
370
    18
100
AcDbVertex
100
AcDb2dVertex
 10
-0.312935248402669
 20
11.35405286717017
 30
0.0
  0
SEQEND
  5
147
330
140
100
AcDbEntity
  8
Default
370
    18
  0
POLYLINE
  5
148
330
1F
100
AcDbEntity
  8
Default
 62
     1
420
 16711680
370
    18
100
AcDb2dPolyline
 66
     1
 10
0.0
 20
0.0
 30
0.0
  0
VERTEX
  5
149
330
148
100
AcDbEntity
  8
Default
 62
     1
420
 16711680
370
    18
100
AcDbVertex
100
AcDb2dVertex
 10
-0.4288627114813259
 20
12.23241441208947
 30
0.0
  0
VERTEX
  5
14A
330
148
100
AcDbEntity
  8
Default
 62
     1
420
 16711680
370
    18
100
AcDbVertex
100
AcDb2dVertex
 10
-0.3847999402249805
 20
12.01978311873984
 30
0.0
  0
VERTEX
  5
14B
330
148
100
AcDbEntity
  8
Default
 62
     1
420
 16711680
370
    18
100
AcDbVertex
100
AcDb2dVertex
 10
-0.4137731932559316
 20
12.01521836722189
 30
0.0
  0
VERTEX
  5
14C
330
148
100
AcDbEntity
  8
Default
 62
     1
420
 16711680
370
    18
100
AcDbVertex
100
AcDb2dVertex
 10
-0.47559543173874
 20
12.08389634572034
 30
0.0
  0
VERTEX
  5
14D
330
148
100
AcDbEntity
  8
Default
 62
     1
420
 16711680
370
    18
100
AcDbVertex
100
AcDb2dVertex
 10
-0.4288627114813259
 20
12.23241441208947
 30
0.0
  0
SEQEND
  5
14E
330
148
100
AcDbEntity
  8
Default
370
    18
  0
POLYLINE
  5
14F
330
1F
100
AcDbEntity
  8
Default
 62
     1
420
 16711680
370
    18
100
AcDb2dPolyline
 66
     1
 10
0.0
 20
0.0
 30
0.0
  0
VERTEX
  5
150
330
14F
100
AcDbEntity
  8
Default
 62
     1
420
 16711680
370
    18
100
AcDbVertex
100
AcDb2dVertex
 10
-0.8823750811596145
 20
12.49742838229231
 30
0.0
  0
VERTEX
  5
151
330
14F
100
AcDbEntity
  8
Default
 62
     1
420
 16711680
370
    18
100
AcDbVertex
100
AcDb2dVertex
 10
-1.012117377134123
 20
12.33413085629147
 30
0.0
  0
VERTEX
  5
152
330
14F
100
AcDbEntity
  8
Default
 62
     1
420
 16711680
370
    18
100
AcDbVertex
100
AcDb2dVertex
 10
-1.008741183558578
 20
12.4221530459396
 30
0.0
  0
VERTEX
  5
153
330
14F
100
AcDbEntity
  8
Default
 62
     1
420
 16711680
370
    18
100
AcDbVertex
100
AcDb2dVertex
 10
-0.8823750811596145
 20
12.49742838229231
 30
0.0
  0
SEQEND
  5
154
330
14F
100
AcDbEntity
  8
Default
370
    18
  0
POLYLINE
  5
155
330
1F
100
AcDbEntity
  8
Default
 62
     1
420
 16711680
370
    18
100
AcDb2dPolyline
 66
     1
 10
0.0
 20
0.0
 30
0.0
  0
VERTEX
  5
156
330
155
100
AcDbEntity
  8
Default
 62
     1
420
 16711680
370
    18
100
AcDbVertex
100
AcDb2dVertex
 10
-0.7732516816643259
 20
12.81522121532918
 30
0.0
  0
VERTEX
  5
157
330
155
100
AcDbEntity
  8
Default
 62
     1
420
 16711680
370
    18
100
AcDbVertex
100
AcDb2dVertex
 10
-0.9584600149513571
 20
12.88436428171814
 30
0.0
  0
VERTEX
  5
158
330
155
100
AcDbEntity
  8
Default
 62
     1
420
 16711680
370
    18
100
AcDbVertex
100
AcDb2dVertex
 10
-0.844668511073555
 20
12.5448673471242
 30
0.0
  0
VERTEX
  5
159
330
155
100
AcDbEntity
  8
Default
 62
     1
420
 16711680
370
    18
100
AcDbVertex
100
AcDb2dVertex
 10
-0.8730216469171612
 20
12.50917615789701
 30
0.0
  0
VERTEX
  5
15A
330
155
100
AcDbEntity
  8
Default
 62
     1
420
 16711680
370
    18
100
AcDbVertex
100
AcDb2dVertex
 10
-1.021884222834807
 20
12.56395317611248
 30
0.0
  0
VERTEX
  5
15B
330
155
100
AcDbEntity
  8
Default
 62
     1
420
 16711680
370
    18
100
AcDbVertex
100
AcDb2dVertex
 10
-1.058436685933307
 20
12.72528699768673
 30
0.0
  0
VERTEX
  5
15C
330
155
100
AcDbEntity
  8
Default
 62
     1
420
 16711680
370
    18
100
AcDbVertex
100
AcDb2dVertex
 10
-1.16079047280008
 20
12.59530354502826
 30
0.0
  0
VERTEX
  5
15D
330
155
100
AcDbEntity
  8
Default
 62
     1
420
 16711680
370
    18
100
AcDbVertex
100
AcDb2dVertex
 10
-1.24345553896865
 20
12.60284830414095
 30
0.0
  0
VERTEX
  5
15E
330
155
100
AcDbEntity
  8
Default
 62
     1
420
 16711680
370
    18
100
AcDbVertex
100
AcDb2dVertex
 10
-1.178015950226329
 20
12.64182955955656
 30
0.0
  0
VERTEX
  5
15F
330
155
100
AcDbEntity
  8
Default
 62
     1
420
 16711680
370
    18
100
AcDbVertex
100
AcDb2dVertex
 10
-1.319127061302163
 20
12.69379882495155
 30
0.0
  0
VERTEX
  5
160
330
155
100
AcDbEntity
  8
Default
 62
     1
420
 16711680
370
    18
100
AcDbVertex
100
AcDb2dVertex
 10
-1.352423909167102
 20
12.84045653975864
 30
0.0
  0
VERTEX
  5
161
330
155
100
AcDbEntity
  8
Default
 62
     1
420
 16711680
370
    18
100
AcDbVertex
100
AcDb2dVertex
 10
-1.397313503339908
 20
12.7834057585229
 30
0.0
  0
VERTEX
  5
162
330
155
100
AcDbEntity
  8
Default
 62
     1
420
 16711680
370
    18
100
AcDbVertex
100
AcDb2dVertex
 10
-1.395177544139053
 20
12.83978474613901
 30
0.0
  0
VERTEX
  5
163
330
155
100
AcDbEntity
  8
Default
 62
     1
420
 16711680
370
    18
100
AcDbVertex
100
AcDb2dVertex
 10
-1.338230115767873
 20
12.87366726023644
 30
0.0
  0
VERTEX
  5
164
330
155
100
AcDbEntity
  8
Default
 62
     1
420
 16711680
370
    18
100
AcDbVertex
100
AcDb2dVertex
 10
-0.9913262258806406
 20
12.98921576281172
 30
0.0
  0
VERTEX
  5
165
330
155
100
AcDbEntity
  8
Default
 62
     1
420
 16711680
370
    18
100
AcDbVertex
100
AcDb2dVertex
 10
-0.7732516816643259
 20
12.81522121532918
 30
0.0
  0
SEQEND
  5
166
330
155
100
AcDbEntity
  8
Default
370
    18
  0
POLYLINE
  5
167
330
1F
100
AcDbEntity
  8
Default
 62
     1
420
 16711680
370
    18
100
AcDb2dPolyline
 66
     1
 10
0.0
 20
0.0
 30
0.0
  0
VERTEX
  5
168
330
167
100
AcDbEntity
  8
Default
 62
     1
420
 16711680
370
    18
100
AcDbVertex
100
AcDb2dVertex
 10
-4.363902451165968
 20
13.81221462328306
 30
0.0
  0
VERTEX
  5
169
330
167
100
AcDbEntity
  8
Default
 62
     1
420
 16711680
370
    18
100
AcDbVertex
100
AcDb2dVertex
 10
-4.395080565307479
 20
13.8661820440595
 30
0.0
  0
VERTEX
  5
16A
330
167
100
AcDbEntity
  8
Default
 62
     1
420
 16711680
370
    18
100
AcDbVertex
100
AcDb2dVertex
 10
-4.805115829961915
 20
13.8661820440595
 30
0.0
  0
VERTEX
  5
16B
330
167
100
AcDbEntity
  8
Default
 62
     1
420
 16711680
370
    18
100
AcDbVertex
100
AcDb2dVertex
 10
-4.608883191122084
 20
13.72074733814967
 30
0.0
  0
VERTEX
  5
16C
330
167
100
AcDbEntity
  8
Default
 62
     1
420
 16711680
370
    18
100
AcDbVertex
100
AcDb2dVertex
 10
-4.363902451165968
 20
13.81221462328306
 30
0.0
  0
SEQEND
  5
16D
330
167
100
AcDbEntity
  8
Default
370
    18
  0
POLYLINE
  5
16E
330
1F
100
AcDbEntity
  8
Default
 62
     1
420
 16711680
370
    18
100
AcDb2dPolyline
 66
     1
 10
0.0
 20
0.0
 30
0.0
  0
VERTEX
  5
16F
330
16E
100
AcDbEntity
  8
Default
 62
     1
420
 16711680
370
    18
100
AcDbVertex
100
AcDb2dVertex
 10
-6.420590004905269
 20
14.85194444073146
 30
0.0
  0
VERTEX
  5
170
330
16E
100
AcDbEntity
  8
Default
 62
     1
420
 16711680
370
    18
100
AcDbVertex
100
AcDb2dVertex
 10
-10.51277777514958
 20
-4.906780597731638
 30
0.0
  0
VERTEX
  5
171
330
16E
100
AcDbEntity
  8
Default
 62
     1
420
 16711680
370
    18
100
AcDbVertex
100
AcDb2dVertex
 10
4.127499998968124
 20
-4.906780597731638
 30
0.0
  0
VERTEX
  5
172
330
16E
100
AcDbEntity
  8
Default
 62
     1
420
 16711680
370
    18
100
AcDbVertex
100
AcDb2dVertex
 10
0.0353122287238108
 20
14.85194444073146
 30
0.0
  0
VERTEX
  5
173
330
16E
100
AcDbEntity
  8
Default
 62
     1
420
 16711680
370
    18
100
AcDbVertex
100
AcDb2dVertex
 10
-6.420590004905269
 20
14.85194444073146
 30
0.0
  0
SEQEND
  5
174
330
16E
100
AcDbEntity
  8
Default
370
    18
  0
INSERT
  5
176
330
1F
100
AcDbEntity
  8
Default
100
AcDbBlockReference
  2
block 2
 10
0.0
 20
0.0
 30
0.0
  0
ENDSEC
  0
SECTION
  2
OBJECTS
  0
DICTIONARY
  5
C
330
0
100
AcDbDictionary
281
     1
  3
ACAD_GROUP
350
D
  3
ACAD_LAYOUT
350
1A
  3
ACAD_MLINESTYLE
350
17
  3
ACAD_PLOTSETTINGS
350
19
  3
ACAD_PLOTSTYLENAME
350
E
  3
ACAD_TABLESTYLE
350
183
  3
ACAD_VISUALSTYLE
350
2A
  0
DICTIONARY
  5
D
102
{ACAD_REACTORS
330
C
102
}
330
C
100
AcDbDictionary
281
     1
  0
DICTIONARY
  5
1A
102
{ACAD_REACTORS
330
C
102
}
330
C
100
AcDbDictionary
281
     1
  3
Layout1
350
1E
  3
Layout2
350
26
  3
Model
350
22
  0
DICTIONARY
  5
17
102
{ACAD_REACTORS
330
C
102
}
330
C
100
AcDbDictionary
281
     1
  3
Standard
350
18
  0
DICTIONARY
  5
19
102
{ACAD_REACTORS
330
C
102
}
330
C
100
AcDbDictionary
281
     1
  0
ACDBDICTIONARYWDFLT
  5
E
102
{ACAD_REACTORS
330
C
102
}
330
C
100
AcDbDictionary
281
     1
  3
Normal
350
F
100
AcDbDictionaryWithDefault
340
F
  0
DICTIONARY
  5
183
102
{ACAD_REACTORS
330
C
102
}
330
C
100
AcDbDictionary
281
     1
  0
DICTIONARY
  5
2A
102
{ACAD_REACTORS
330
C
102
}
330
C
100
AcDbDictionary
281
     1
  3
2dWireframe
350
2F
  3
3D Hidden
350
31
  3
3dWireframe
350
30
  3
Basic
350
32
  3
Brighten
350
36
  3
ColorChange
350
3A
  3
Conceptual
350
34
  3
Dim
350
35
  3
Facepattern
350
39
  3
Flat
350
2B
  3
FlatWithEdges
350
2C
  3
Gouraud
350
2D
  3
GouraudWithEdges
350
2E
  3
Linepattern
350
38
  3
Realistic
350
33
  3
Thicken
350
37
  0
LAYOUT
  5
1E
102
{ACAD_REACTORS
330
1A
102
}
330
1A
100
AcDbPlotSettings
  1

  2
none_device
  4

  6

 40
0.0
 41
0.0
 42
0.0
 43
0.0
 44
0.0
 45
0.0
 46
0.0
 47
0.0
 48
0.0
 49
0.0
140
0.0
141
0.0
142
1.0
143
1.0
 70
   688
 72
     0
 73
     0
 74
     5
  7

 75
    16
 76
     0
 77
     2
 78
   300
147
1.0
148
0.0
149
0.0
100
AcDbLayout
  1
Layout1
 70
     1
 71
     1
 10
0.0
 20
0.0
 11
12.0
 21
9.0
 12
0.0
 22
0.0
 32
0.0
 14
1.000000000000000E+20
 24
1.000000000000000E+20
 34
1.000000000000000E+20
 15
-1.000000000000000E+20
 25
-1.000000000000000E+20
 35
-1.000000000000000E+20
146
0.0
 13
0.0
 23
0.0
 33
0.0
 16
1.0
 26
0.0
 36
0.0
 17
0.0
 27
1.0
 37
0.0
 76
     0
330
1B
  0
LAYOUT
  5
26
102
{ACAD_REACTORS
330
1A
102
}
330
1A
100
AcDbPlotSettings
  1

  2
none_device
  4

  6

 40
0.0
 41
0.0
 42
0.0
 43
0.0
 44
0.0
 45
0.0
 46
0.0
 47
0.0
 48
0.0
 49
0.0
140
0.0
141
0.0
142
1.0
143
1.0
 70
   688
 72
     0
 73
     0
 74
     5
  7

 75
    16
 76
     0
 77
     2
 78
   300
147
1.0
148
0.0
149
0.0
100
AcDbLayout
  1
Layout2
 70
     1
 71
     2
 10
0.0
 20
0.0
 11
0.0
 21
0.0
 12
0.0
 22
0.0
 32
0.0
 14
0.0
 24
0.0
 34
0.0
 15
0.0
 25
0.0
 35
0.0
146
0.0
 13
0.0
 23
0.0
 33
0.0
 16
1.0
 26
0.0
 36
0.0
 17
0.0
 27
1.0
 37
0.0
 76
     0
330
23
  0
LAYOUT
  5
22
102
{ACAD_REACTORS
330
1A
102
}
330
1A
100
AcDbPlotSettings
  1

  2
none_device
  4

  6

 40
0.0
 41
0.0
 42
0.0
 43
0.0
 44
0.0
 45
0.0
 46
0.0
 47
0.0
 48
0.0
 49
0.0
140
0.0
141
0.0
142
1.0
143
1.0
 70
  1712
 72
     0
 73
     0
 74
     0
  7

 75
     0
 76
     0
 77
     2
 78
   300
147
1.0
148
0.0
149
0.0
100
AcDbLayout
  1
Model
 70
     1
 71
     0
 10
0.0
 20
0.0
 11
12.0
 21
9.0
 12
0.0
 22
0.0
 32
0.0
 14
1.000000000000000E+20
 24
1.000000000000000E+20
 34
1.000000000000000E+20
 15
-1.000000000000000E+20
 25
-1.000000000000000E+20
 35
-1.000000000000000E+20
146
0.0
 13
0.0
 23
0.0
 33
0.0
 16
1.0
 26
0.0
 36
0.0
 17
0.0
 27
1.0
 37
0.0
 76
     0
330
1F
331
29
  0
MLINESTYLE
  5
18
102
{ACAD_REACTORS
330
17
102
}
330
17
100
AcDbMlineStyle
  2
Standard
 70
     0
  3

 62
   256
 51
90.0
 52
90.0
 71
     2
 49
0.5
 62
   256
  6
BYLAYER
 49
-0.5
 62
   256
  6
BYLAYER
  0
ACDBPLACEHOLDER
  5
F
102
{ACAD_REACTORS
330
E
102
}
330
E
  0
VISUALSTYLE
  5
2F
102
{ACAD_REACTORS
330
2A
102
}
330
2A
100
AcDbVisualStyle
  2
2dWireframe
 70
     4
 71
     0
 72
     2
 73
     0
 90
        0
 40
-0.6
 41
-30.0
 62
     5
 63
     7
421
 16777215
 74
     1
 91
        4
 64
     7
 65
   257
 75
     1
175
     1
 42
1.0
 92
        0
 66
   257
 43
1.0
 76
     1
 77
     6
 78
     2
 67
     7
 79
     5
170
     0
171
     0
290
     0
174
     0
 93
        1
 44
0.0
173
     0
291
     0
 45
0.0
1001
ACAD
1000
AcDbSavedByObjectVersion
1070
     0
  0
VISUALSTYLE
  5
31
102
{ACAD_REACTORS
330
2A
102
}
330
2A
100
AcDbVisualStyle
  2
3D Hidden
 70
     6
 71
     1
 72
     2
 73
     2
 90
        0
 40
-0.6
 41
-30.0
 62
     5
 63
     7
421
 16777215
 74
     2
 91
        2
 64
     7
 65
   257
 75
     2
175
     1
 42
40.0
 92
        0
 66
   257
 43
1.0
 76
     1
 77
     6
 78
     2
 67
     7
 79
     3
170
     0
171
     0
290
     0
174
     0
 93
        1
 44
0.0
173
     0
291
     0
 45
0.0
1001
ACAD
1000
AcDbSavedByObjectVersion
1070
     0
  0
VISUALSTYLE
  5
30
102
{ACAD_REACTORS
330
2A
102
}
330
2A
100
AcDbVisualStyle
  2
3dWireframe
 70
     5
 71
     0
 72
     2
 73
     0
 90
        0
 40
-0.6
 41
-30.0
 62
     5
 63
     7
421
 16777215
 74
     1
 91
        4
 64
     7
 65
   257
 75
     1
175
     1
 42
1.0
 92
        0
 66
   257
 43
1.0
 76
     1
 77
     6
 78
     2
 67
     7
 79
     5
170
     0
171
     0
290
     0
174
     0
 93
        1
 44
0.0
173
     0
291
     0
 45
0.0
1001
ACAD
1000
AcDbSavedByObjectVersion
1070
     0
  0
VISUALSTYLE
  5
32
102
{ACAD_REACTORS
330
2A
102
}
330
2A
100
AcDbVisualStyle
  2
Basic
 70
     7
 71
     1
 72
     0
 73
     1
 90
        0
 40
-0.6
 41
-30.0
 62
     5
 63
     7
421
 16777215
 74
     0
 91
        4
 64
     7
 65
   257
 75
     1
175
     1
 42
1.0
 92
        8
 66
     7
 43
1.0
 76
     1
 77
     6
 78
     2
 67
     7
 79
     5
170
     0
171
     0
290
     0
174
     0
 93
        1
 44
0.0
173
     0
291
     1
 45
0.0
1001
ACAD
1000
AcDbSavedByObjectVersion
1070
     0
  0
VISUALSTYLE
  5
36
102
{ACAD_REACTORS
330
2A
102
}
330
2A
100
AcDbVisualStyle
  2
Brighten
 70
    12
 71
     2
 72
     2
 73
     0
 90
        0
 40
-0.6
 41
-30.0
 62
     5
 63
     7
421
 16777215
 74
     1
 91
        4
 64
     7
 65
   257
 75
     1
175
     1
 42
1.0
 92
        8
 66
     7
 43
1.0
 76
     1
 77
     6
 78
     2
 67
     7
 79
     5
170
     0
171
     0
290
     0
174
     0
 93
        1
 44
50.0
173
     0
291
     1
 45
0.0
1001
ACAD
1000
AcDbSavedByObjectVersion
1070
     0
  0
VISUALSTYLE
  5
3A
102
{ACAD_REACTORS
330
2A
102
}
330
2A
100
AcDbVisualStyle
  2
ColorChange
 70
    16
 71
     2
 72
     2
 73
     3
 90
        0
 40
-0.6
 41
-30.0
 62
     5
 63
     8
421
  8421504
 74
     1
 91
        4
 64
     7
 65
   257
 75
     1
175
     1
 42
1.0
 92
        8
 66
     8
424
  8421504
 43
1.0
 76
     1
 77
     6
 78
     2
 67
     7
 79
     5
170
     0
171
     0
290
     0
174
     0
 93
        1
 44
0.0
173
     0
291
     1
 45
0.0
1001
ACAD
1000
AcDbSavedByObjectVersion
1070
     0
  0
VISUALSTYLE
  5
34
102
{ACAD_REACTORS
330
2A
102
}
330
2A
100
AcDbVisualStyle
  2
Conceptual
 70
     9
 71
     3
 72
     2
 73
     0
 90
        0
 40
-0.6
 41
-30.0
 62
     5
 63
     7
421
 16777215
 74
     2
 91
        2
 64
     7
 65
   257
 75
     1
175
     1
 42
40.0
 92
        8
 66
     7
 43
1.0
 76
     1
 77
     6
 78
     2
 67
     7
 79
     3
170
     0
171
     0
290
     0
174
     0
 93
        1
 44
0.0
173
     0
291
     0
 45
0.0
1001
ACAD
1000
AcDbSavedByObjectVersion
1070
     0
  0
VISUALSTYLE
  5
35
102
{ACAD_REACTORS
330
2A
102
}
330
2A
100
AcDbVisualStyle
  2
Dim
 70
    11
 71
     2
 72
     2
 73
     0
 90
        0
 40
-0.6
 41
-30.0
 62
     5
 63
     7
421
 16777215
 74
     1
 91
        4
 64
     7
 65
   257
 75
     1
175
     1
 42
1.0
 92
        8
 66
     7
 43
1.0
 76
     1
 77
     6
 78
     2
 67
     7
 79
     5
170
     0
171
     0
290
     0
174
     0
 93
        1
 44
-50.0
173
     0
291
     1
 45
0.0
1001
ACAD
1000
AcDbSavedByObjectVersion
1070
     0
  0
VISUALSTYLE
  5
39
102
{ACAD_REACTORS
330
2A
102
}
330
2A
100
AcDbVisualStyle
  2
Facepattern
 70
    15
 71
     2
 72
     2
 73
     0
 90
        0
 40
-0.6
 41
-30.0
 62
     5
 63
     7
421
 16777215
 74
     1
 91
        4
 64
     7
 65
   257
 75
     1
175
     1
 42
1.0
 92
        8
 66
     7
 43
1.0
 76
     1
 77
     6
 78
     2
 67
     7
 79
     5
170
     0
171
     0
290
     0
174
     0
 93
        1
 44
0.0
173
     0
291
     1
 45
0.0
1001
ACAD
1000
AcDbSavedByObjectVersion
1070
     0
  0
VISUALSTYLE
  5
2B
102
{ACAD_REACTORS
330
2A
102
}
330
2A
100
AcDbVisualStyle
  2
Flat
 70
     0
 71
     2
 72
     1
 73
     1
 90
        2
 40
-0.6
 41
30.0
 62
     5
 63
     7
421
 16777215
 74
     0
 91
        4
 64
     7
 65
   257
 75
     1
175
     1
 42
1.0
 92
        8
 66
     7
 43
1.0
 76
     1
 77
     6
 78
     2
 67
     7
 79
     5
170
     0
171
     0
290
     0
174
     0
 93
       13
 44
0.0
173
     0
291
     1
 45
0.0
1001
ACAD
1000
AcDbSavedByObjectVersion
1070
     0
  0
VISUALSTYLE
  5
2C
102
{ACAD_REACTORS
330
2A
102
}
330
2A
100
AcDbVisualStyle
  2
FlatWithEdges
 70
     1
 71
     2
 72
     1
 73
     1
 90
        2
 40
-0.6
 41
30.0
 62
     5
 63
     7
421
 16777215
 74
     1
 91
        4
 64
     7
 65
   257
 75
     1
175
     1
 42
1.0
 92
        0
 66
   257
 43
1.0
 76
     1
 77
     6
 78
     2
 67
     7
 79
     5
170
     0
171
     0
290
     0
174
     0
 93
       13
 44
0.0
173
     0
291
     1
 45
0.0
1001
ACAD
1000
AcDbSavedByObjectVersion
1070
     0
  0
VISUALSTYLE
  5
2D
102
{ACAD_REACTORS
330
2A
102
}
330
2A
100
AcDbVisualStyle
  2
Gouraud
 70
     2
 71
     2
 72
     2
 73
     1
 90
        2
 40
-0.6
 41
30.0
 62
     5
 63
     7
421
 16777215
 74
     0
 91
        4
 64
     7
 65
   257
 75
     1
175
     1
 42
1.0
 92
        0
 66
     7
 43
1.0
 76
     1
 77
     6
 78
     2
 67
     7
 79
     5
170
     0
171
     0
290
     0
174
     0
 93
       13
 44
0.0
173
     0
291
     1
 45
0.0
1001
ACAD
1000
AcDbSavedByObjectVersion
1070
     0
  0
VISUALSTYLE
  5
2E
102
{ACAD_REACTORS
330
2A
102
}
330
2A
100
AcDbVisualStyle
  2
GouraudWithEdges
 70
     3
 71
     2
 72
     2
 73
     1
 90
        2
 40
-0.6
 41
30.0
 62
     5
 63
     7
421
 16777215
 74
     1
 91
        4
 64
     7
 65
   257
 75
     1
175
     1
 42
1.0
 92
        0
 66
   257
 43
1.0
 76
     1
 77
     6
 78
     2
 67
     7
 79
     5
170
     0
171
     0
290
     0
174
     0
 93
       13
 44
0.0
173
     0
291
     1
 45
0.0
1001
ACAD
1000
AcDbSavedByObjectVersion
1070
     0
  0
VISUALSTYLE
  5
38
102
{ACAD_REACTORS
330
2A
102
}
330
2A
100
AcDbVisualStyle
  2
Linepattern
 70
    14
 71
     2
 72
     2
 73
     0
 90
        0
 40
-0.6
 41
-30.0
 62
     5
 63
     7
421
 16777215
 74
     1
 91
        4
 64
     7
 65
   257
 75
     7
175
     7
 42
1.0
 92
        8
 66
     7
 43
1.0
 76
     1
 77
     6
 78
     2
 67
     7
 79
     5
170
     0
171
     0
290
     0
174
     0
 93
        1
 44
0.0
173
     0
291
     1
 45
0.0
1001
ACAD
1000
AcDbSavedByObjectVersion
1070
     0
  0
VISUALSTYLE
  5
33
102
{ACAD_REACTORS
330
2A
102
}
330
2A
100
AcDbVisualStyle
  2
Realistic
 70
     8
 71
     2
 72
     2
 73
     0
 90
        0
 40
-0.6
 41
-30.0
 62
     5
 63
     7
421
 16777215
 74
     1
 91
        0
 64
     7
 65
   257
 75
     1
175
     1
 42
1.0
 92
        8
 66
     8
424
  7895160
 43
1.0
 76
     1
 77
     6
 78
     2
 67
     7
 79
     5
170
     0
171
     0
290
     0
174
     0
 93
       13
 44
0.0
173
     0
291
     0
 45
0.0
1001
ACAD
1000
AcDbSavedByObjectVersion
1070
     0
  0
VISUALSTYLE
  5
37
102
{ACAD_REACTORS
330
2A
102
}
330
2A
100
AcDbVisualStyle
  2
Thicken
 70
    13
 71
     2
 72
     2
 73
     0
 90
        0
 40
-0.6
 41
-30.0
 62
     5
 63
     7
421
 16777215
 74
     1
 91
        4
 64
     7
 65
   257
 75
     1
175
     1
 42
1.0
 92
       12
 66
     7
 43
1.0
 76
     1
 77
     6
 78
     2
 67
     7
 79
     5
170
     0
171
     0
290
     0
174
     0
 93
        1
 44
0.0
173
     0
291
     1
 45
0.0
1001
ACAD
1000
AcDbSavedByObjectVersion
1070
     0
  0
ENDSEC
  0
EOF
